<svg height="512" viewBox="0 0 24 24" width="512" xmlns="http://www.w3.org/2000/svg" fill="#fff"><path d="M13.5 4.18a.5.5 0 01-.5-.5V2c0-.551-.449-1-1-1s-1 .449-1 1v1.68a.5.5 0 01-1 0V2c0-1.103.897-2 2-2s2 .897 2 2v1.68a.5.5 0 01-.5.5zM12 24c-1.93 0-3.5-1.57-3.5-3.5a.5.5 0 011 0c0 1.378 1.122 2.5 2.5 2.5s2.5-1.122 2.5-2.5a.5.5 0 011 0c0 1.93-1.57 3.5-3.5 3.5z"/><path d="M20.5 21h-17a1.502 1.502 0 01-.975-2.64A6.952 6.952 0 005 13.038V10c0-3.86 3.14-7 7-7s7 3.14 7 7v3.038c0 2.053.899 3.99 2.467 5.315A1.501 1.501 0 0120.5 21zM12 4c-3.309 0-6 2.691-6 6v3.038a7.944 7.944 0 01-2.821 6.079A.5.5 0 003.5 20h17a.5.5 0 00.325-.88A7.95 7.95 0 0118 13.038V10c0-3.309-2.691-6-6-6z"/></svg>