<?xml version="1.0" encoding="utf-8"?>
<!-- Generator: Adobe Illustrator 25.0.1, SVG Export Plug-In . SVG Version: 6.00 Build 0)  -->
<svg version="1.1" id="Layer_1" xmlns="http://www.w3.org/2000/svg" xmlns:xlink="http://www.w3.org/1999/xlink" x="0px" y="0px"
	 viewBox="0 0 464 464" style="enable-background:new 0 0 464 464;" xml:space="preserve">
<style type="text/css">
	.st0{fill:#8010D2;}
</style>
<path class="st0" d="M48,384v-16h104.9c-4.7-4.6-8.5-10-11.4-16H24c-13.2,0-24,10.8-24,24s10.8,24,24,24h117.5
	c2.9-6,6.7-11.4,11.4-16H48z M32,384H16v-16h16V384z"/>
<path class="st0" d="M48,336V0H24C10.8,0,0,10.8,0,24v320.2c6.7-5.1,15-8.2,24-8.2H48z"/>
<path class="st0" d="M136,328c0-30.9,25.1-56,56-56h144V0H64v336h72.6C136.3,333.4,136,330.7,136,328z M320,256h-16v-16h16V256z
	 M320,192H112v-16h208V192z M80,16h240v144H80V16z M80,176h16v16H80V176z M80,208h240v16H80V208z M80,240h208v16H80V240z"/>
<path class="st0" d="M96,32h208v112H96V32z"/>
<path class="st0" d="M192,416c-4.4,0-8,3.6-8,8s3.6,8,8,8h255.8c-0.4-2.6-0.6-5.3-0.6-8s0.3-5.4,0.6-8H192z"/>
<path class="st0" d="M464,40H352v64h112l-16-32L464,40z"/>
<path class="st0" d="M464,288H192c-22.1,0-40,17.9-40,40s17.9,40,40,40h272c-4.7-4.6-8.5-10-11.4-16H192c-13.2,0-24-10.8-24-24
	s10.8-24,24-24h260.6C455.5,298,459.3,292.6,464,288z"/>
<path class="st0" d="M464,384H192c-22.1,0-40,17.9-40,40s17.9,40,40,40h272c-4.7-4.6-8.5-10-11.4-16H192c-13.2,0-24-10.8-24-24
	s10.8-24,24-24h260.6C455.5,394,459.3,388.6,464,384z"/>
<path class="st0" d="M192,320c-4.4,0-8,3.6-8,8s3.6,8,8,8h255.8c-0.4-2.6-0.6-5.3-0.6-8s0.3-5.4,0.6-8H192z"/>
</svg>
