<svg xmlns="http://www.w3.org/2000/svg" width="27.933" height="27.187"><g data-name="Group 24" opacity=".79" fill="#2e2842"><path data-name="Path 53" d="M27.878 25.216l-2.056-5.68a13.593 13.593 0 10-5.064 5.611l6.074 1.274a.914.914 0 001.047-1.205zm-7.111-1.934a.911.911 0 00-.692.132 11.753 11.753 0 113.944-4.362.917.917 0 00-.05.736l1.632 4.508z"/><path data-name="Path 54" d="M19.3 12.7H8.479a.914.914 0 100 1.828h10.816a.914.914 0 100-1.828z"/><path data-name="Path 55" d="M13.053 16.5H8.479a.914.914 0 000 1.828h4.569a.914.914 0 000-1.828z"/><path data-name="Path 56" d="M19.3 8.544H8.479a.914.914 0 100 1.828h10.816a.914.914 0 100-1.828z"/></g></svg>