<svg xmlns="http://www.w3.org/2000/svg" width="24" height="24"><g data-name="Iconly/Bold/Close Square"><path data-name="Close Square" d="M16.34 21.999H7.67C4.279 21.999 2 19.624 2 16.09V7.919c0-3.541 2.279-5.92 5.67-5.92h8.67c3.385 0 5.66 2.379 5.66 5.92v8.171c0 3.534-2.275 5.909-5.66 5.909zM12 13.23l1.78 1.769a.815.815 0 00.61.261.873.873 0 00.62-.261.869.869 0 000-1.228l-1.78-1.78 1.78-1.782a.875.875 0 00-.616-1.494.89.89 0 00-.624.256L12 10.749 10.22 8.97a.89.89 0 00-.62-.255.876.876 0 00-.62 1.494l1.78 1.781-1.78 1.77a.88.88 0 00.619 1.5.873.873 0 00.621-.261L12 13.231z" opacity=".61"/></g></svg>