<svg xmlns="http://www.w3.org/2000/svg" viewBox="0 0 512 512" fill="#fff"><path d="M437.333 128H330.667c-5.888 0-10.667-4.8-10.667-10.667V10.667C320 4.779 315.221 0 309.333 0H96C78.357 0 64 14.357 64 32v448c0 17.643 14.357 32 32 32h320c17.643 0 32-14.357 32-32V138.667c0-5.888-4.779-10.667-10.667-10.667zm-10.666 352c0 5.867-4.779 10.667-10.667 10.667H96c-5.888 0-10.667-4.8-10.667-10.667V32c0-5.867 4.779-10.667 10.667-10.667h202.667v96c0 17.643 14.357 32 32 32h96V480z"/><path d="M444.864 131.136l-128-128c-4.16-4.16-10.923-4.16-15.083 0s-4.16 10.923 0 15.083l128 128a10.716 10.716 0 007.552 3.115c2.731 0 5.461-1.045 7.531-3.115 4.16-4.16 4.16-10.923 0-15.083zM352 192H160c-5.888 0-10.667 4.779-10.667 10.667s4.779 10.667 10.667 10.667h192c5.888 0 10.667-4.779 10.667-10.667S357.888 192 352 192zM352 277.333H160c-5.888 0-10.667 4.779-10.667 10.667s4.779 10.667 10.667 10.667h192c5.888 0 10.667-4.779 10.667-10.667s-4.779-10.667-10.667-10.667zM352 362.667H160c-5.888 0-10.667 4.779-10.667 10.667s4.779 10.667 10.667 10.667h192c5.888 0 10.667-4.779 10.667-10.667 0-5.889-4.779-10.667-10.667-10.667z"/></svg>