<svg style="fill:#8010d2;" id="Layer_1" enable-background="new 0 0 511.917 511.917" height="512" viewBox="0 0 511.917 511.917" width="512" xmlns="http://www.w3.org/2000/svg"><g><path d="m511.917 13.715h-202.136c-21.766 0-41.202 10.154-53.822 25.976-12.621-15.822-32.057-25.976-53.822-25.976h-202.137v400.023h202.136c21.407 0 38.822 17.416 38.822 38.822h30c0-21.407 17.416-38.822 38.822-38.822h22.655v49.696c0 19.17 15.597 34.767 34.767 34.767h18.47c19.171 0 34.768-15.596 34.768-34.767v-49.696h91.477zm-202.136 30h172.136v280.02h-61.477v-108.069l-29.002-40.003v-22.464h-30v22.464l-29.002 40.003v108.069h-22.655c-14.392 0-27.764 4.443-38.822 12.025v-253.223c-.001-21.406 17.416-38.822 38.822-38.822zm66.657 162.369 12.894 17.784h-25.788zm-14.002 47.784h28.004v162h-28.004zm-160.3-210.153c21.407 0 38.822 17.416 38.822 38.822v253.223c-11.058-7.583-24.43-12.025-38.822-12.025h-172.136v-280.02zm0 340.024h-172.136v-30.004h172.136c21.407 0 38.822 17.416 38.822 38.822v3.207c-11.058-7.583-24.429-12.025-38.822-12.025zm107.645 0c-14.392 0-27.764 4.443-38.822 12.025v-3.207c0-21.407 17.416-38.822 38.822-38.822h22.655v30.004zm75.891 84.462h-18.47c-2.628 0-4.767-2.138-4.767-4.767v-17.567h28.004v17.567c.001 2.629-2.138 4.767-4.767 4.767zm34.768-84.462v-30.004h61.477v30.004z"/><path d="m61.459 78.719h148.041v30h-148.041z"/><path d="m61.459 258.73h98.038v30h-98.038z"/><path d="m61.459 198.727h148.041v30h-148.041z"/><path d="m169.497 138.723h40.002v30h-40.002z"/><path d="m61.459 138.723h78.036v30h-78.036z"/></g></svg>