<svg style="fill:white;" height="512" viewBox="0 0 64 64" width="512" xmlns="http://www.w3.org/2000/svg"><path d="m61 13h-3v-3a1 1 0 0 0 -1-1h-21a4.994 4.994 0 0 0 -4 2.03 4.994 4.994 0 0 0 -4-2.03h-21a1 1 0 0 0 -1 1v3h-3a1 1 0 0 0 -1 1v40a1 1 0 0 0 1 1h58a1 1 0 0 0 1-1v-40a1 1 0 0 0 -1-1zm-57 40v-38h2v35a1 1 0 0 0 1 1h21a3.01 3.01 0 0 1 2.82 2zm27-2.97a4.924 4.924 0 0 0 -3-1.03h-20v-38h20a3.009 3.009 0 0 1 3 3zm1 1-.03-.03h.06zm1-37.03a3.009 3.009 0 0 1 3-3h20v38h-20a4.924 4.924 0 0 0 -3 1.03zm27 39h-26.82a3.01 3.01 0 0 1 2.82-2h21a1 1 0 0 0 1-1v-35h2z"/><path d="m47 13a4 4 0 0 0 -4 4v24a1 1 0 0 0 .14.51l3 5a1 1 0 0 0 1.72 0l3-5a1 1 0 0 0 .14-.51v-24a4 4 0 0 0 -4-4zm0 31.06-1.65-2.76 1.65-1.1 1.65 1.1zm2-4.93-1-.67v-13.46h-2v13.46l-1 .67v-16.13h4zm0-18.13h-4v-2h4zm-4-4a2 2 0 0 1 4 0z"/><path d="m10 14h19v2h-19z"/><path d="m10 18h11v2h-11z"/><path d="m23 18h6v2h-6z"/><path d="m10 22h4v2h-4z"/><path d="m16 22h13v2h-13z"/></svg>