<svg xmlns="http://www.w3.org/2000/svg" width="29.237" height="22"><g data-name="Group 27" fill="#828282"><path data-name="Path 37" d="M4.993 0a4.993 4.993 0 104.993 4.993A5 5 0 004.993 0zm0 8.113a3.119 3.119 0 113.119-3.12 3.123 3.123 0 01-3.119 3.12z"/><path data-name="Path 38" d="M11.62 3.013H28.3a.937.937 0 000-1.874H11.62a.937.937 0 000 1.874z"/><path data-name="Path 39" d="M11.62 8.243h12.081a.937.937 0 000-1.874H11.62a.937.937 0 000 1.874z"/><path data-name="Path 40" d="M4.993 12.013a4.993 4.993 0 104.993 4.993 5 5 0 00-4.993-4.993zm0 8.113a3.119 3.119 0 113.119-3.12 3.123 3.123 0 01-3.119 3.12z"/><path data-name="Path 41" d="M28.3 13.757H11.62a.937.937 0 000 1.874H28.3a.937.937 0 000-1.874z"/><path data-name="Path 42" d="M23.701 18.988H11.62a.937.937 0 000 1.874h12.081a.937.937 0 000-1.874z"/></g></svg>