<svg data-name="Iconly/Light-outline/Edit Square" xmlns="http://www.w3.org/2000/svg" width="30" height="30"><path data-name="Edit Square" d="M9.572 27.5c-4.153 0-6.943-2.891-7.072-7.08V9.922c0-4.245 2.7-7.236 6.785-7.37h4.887a.92.92 0 01.125 1.833l-.125.008h-4.6c-3.1 0-5.108 2.053-5.222 5.241l-.006.293v10.2c0 3.26 1.91 5.4 4.949 5.528l.279.006h10.847c3.108 0 5.11-2.049 5.224-5.24l.006-.294v-4.945a.922.922 0 011.835-.125l.009.125v4.943c0 4.249-2.7 7.236-6.786 7.37h-.288zM10 20.824a.922.922 0 01-.923-.944l.116-4.64a3.569 3.569 0 011.048-2.44l9.187-9.172a3.859 3.859 0 015.447 0l1.5 1.494a3.842 3.842 0 010 5.439l-9.231 9.215a3.57 3.57 0 01-2.544 1.048zm1.545-6.724a1.736 1.736 0 00-.511 1.188l-.093 3.694H14.6a1.758 1.758 0 001.107-.395l.128-.116 7.171-7.159-4.334-4.329zm12.767-4.09l.756-.755a2 2 0 000-2.835l-1.5-1.493a2.011 2.011 0 00-2.841 0l-.755.754z" fill="#fff"/></svg>