<svg xmlns="http://www.w3.org/2000/svg" width="37.279" height="36.334" viewBox="0 0 37.279 36.334">
  <g id="Group_22" data-name="Group 22" transform="translate(-746.879 -615.666)">
    <path id="Path_39" data-name="Path 39" d="M783.766,625.9c-.464-3.53-1.711-6.021-3.709-7.4-2.471-1.708-5.333-2.053-7.858-2.359l-.51-.062a49.165,49.165,0,0,0-15.735.508,16.3,16.3,0,0,0-3.6,1.054,7.941,7.941,0,0,0-3.46,2.818c-1.3,1.956-1.579,4.476-1.736,6.685-.167,2.317-.327,5.07-.263,7.914.025,1.063.057,2.3.141,3.53a20.3,20.3,0,0,0,1.842,7.934,8.763,8.763,0,0,0,7.026,4.6,66.185,66.185,0,0,0,9.286.887h.2a51.646,51.646,0,0,0,9.307-.951c2.441-.442,4.942-1.119,6.7-3.058,1.9-2.089,2.253-5.157,2.453-8.121A71.2,71.2,0,0,0,783.766,625.9Zm-2.232,13.817c-.173,2.555-.459,5.178-1.854,6.714-1.359,1.5-3.5,1.99-5.4,2.333a51.07,51.07,0,0,1-9.082.912,64.134,64.134,0,0,1-8.961-.863c-2.68-.394-4.267-1.4-5.3-3.377a18.2,18.2,0,0,1-1.58-7.008c-.081-1.182-.112-2.389-.136-3.426-.062-2.747.1-5.431.258-7.695.136-1.912.365-4.077,1.352-5.561a5.6,5.6,0,0,1,2.474-1.984,14.192,14.192,0,0,1,3.086-.892,47.892,47.892,0,0,1,9.022-.873,46.87,46.87,0,0,1,5.986.387l.521.064c2.368.286,4.817.583,6.815,1.963,1.433.991,2.35,2.939,2.724,5.79A69.233,69.233,0,0,1,781.534,639.712Z" fill="#3a3a3a"/>
    <path id="Path_40" data-name="Path 40" d="M775.217,631.721,767,640.707c-.038.038-.1.039-.177-.035l-3.922-3.593a1.163,1.163,0,1,0-1.572,1.715l3.884,3.558a2.4,2.4,0,0,0,1.7.705,2.489,2.489,0,0,0,1.765-.742l8.256-9.024a1.164,1.164,0,0,0-1.717-1.571Z" transform="translate(-3.155 -3.516)" fill="#3a3a3a"/>
  </g>
</svg>
