<svg class="alarm" id="Group_38" data-name="Group 38" xmlns="http://www.w3.org/2000/svg" xmlns:xlink="http://www.w3.org/1999/xlink" width="34.564" height="38.328" viewBox="0 0 34.564 38.328">
  <defs>
    <clipPath id="clip-path">
      <rect width="34.564" height="38.328" fill="none"/>
    </clipPath>
    <clipPath id="clip-path-2">
      <rect width="14" height="14" fill="none"/>
    </clipPath>
  </defs>
  <g id="Icon-active_Notification" data-name="Icon-active / Notification">
    <g id="Icon_notification" data-name="Icon / notification" clip-path="url(#clip-path)">
      <path id="Shape" d="M15.708,36.028a4.624,4.624,0,0,1-2.284-.6,4.5,4.5,0,0,1-2.284-3.9v-.56h-10A1.135,1.135,0,0,1,0,29.84V28.147a1.125,1.125,0,0,1,.335-.8l3.1-3.048V15.485A11.687,11.687,0,0,1,5.773,8.33,11.968,11.968,0,0,1,12,3.989V3.655a3.661,3.661,0,0,1,1.1-2.57,3.682,3.682,0,0,1,5.22,0,3.662,3.662,0,0,1,1.1,2.575v.334a11.972,11.972,0,0,1,6.226,4.338,11.683,11.683,0,0,1,2.341,7.154V24.3l3.1,3.052a1.114,1.114,0,0,1,.335.8V29.84a1.136,1.136,0,0,1-1.143,1.125h-10v.56a4.5,4.5,0,0,1-2.285,3.9A4.626,4.626,0,0,1,15.708,36.028Zm-2.284-5.063v.56a2.251,2.251,0,0,0,1.143,1.949,2.308,2.308,0,0,0,2.284,0,2.25,2.25,0,0,0,1.142-1.949v-.56Zm2.3-28.716A1.417,1.417,0,0,0,14.3,3.655V4.845a1.126,1.126,0,0,1-.876,1.1A9.89,9.89,0,0,0,7.859,9.369a9.64,9.64,0,0,0-2.14,6.116v9.284a1.107,1.107,0,0,1-.339.8l-3.1,3.052v.1H29.129v-.1l-3.095-3.052a1.107,1.107,0,0,1-.335-.8V15.485a9.643,9.643,0,0,0-2.141-6.116,9.89,9.89,0,0,0-5.566-3.429,1.128,1.128,0,0,1-.841-1.1V3.655A1.417,1.417,0,0,0,15.726,2.25Z" transform="translate(0.3 2)" fill="#53587f" stroke="#53587f" stroke-miterlimit="10" stroke-width="0.6"/>
      <g id="Dot_notification" data-name="Dot / notification" transform="translate(20.564)" clip-path="url(#clip-path-2)">
        <g id="Rectangle" fill="#ff7d5a" stroke="#fff" stroke-miterlimit="10" stroke-width="2">
          <rect width="14" height="14" rx="7" stroke="none"/>
          <rect x="1" y="1" width="12" height="12" rx="6" fill="none"/>
        </g>
      </g>
    </g>
  </g>
</svg>
