<svg id="Capa_1" enable-background="new 0 0 512 512" height="512" viewBox="0 0 512 512" width="512" xmlns="http://www.w3.org/2000/svg"><g><path d="m324.01 146.01c-38.703 34.65-97.295 34.67-136.02 0-17.61 21.27-26.99 50-26.99 77.99v19h190v-19c0-27.99-9.39-56.72-26.99-77.99zm-68.01-4.01c37.602 0 71-29.403 71-70 0-39.38-31.89-72-71-72-39.07 0-71 32.58-71 72 0 40.47 33.287 70 71 70zm241 131h-18v-49c0-2.72-.74-5.39-2.14-7.72l-25.1-41.83c7-8.21 11.24-18.84 11.24-30.45 0-25.92-21.08-47-47-47s-47 21.08-47 47c0 29.88 27.68 52.33 57.05 45.91l22.95 38.25v44.84h-386v-44.84l22.95-38.25c29.41 6.43 57.05-16.09 57.05-45.91 0-25.92-21.08-47-47-47s-47 21.08-47 47c0 11.61 4.24 22.24 11.24 30.45l-25.1 41.83c-1.4 2.33-2.14 5-2.14 7.72v49h-18c-8.28 0-15 6.72-15 15v80c0 8.28 6.72 15 15 15h482c8.28 0 15-6.72 15-15v-80c0-8.28-6.72-15-15-15zm-432 140v84c0 8.28 6.72 15 15 15h352c8.28 0 15-6.72 15-15v-84zm255 50h-128c-8.28 0-15-6.72-15-15s6.72-15 15-15h128c8.28 0 15 6.72 15 15s-6.72 15-15 15z"/></g></svg>