<svg xmlns="http://www.w3.org/2000/svg" width="34" height="34" viewBox="0 0 34 34">
  <path id="Path_41" data-name="Path 41" d="M765.481,368.817a6.738,6.738,0,0,0-9.514,0l-20.235,20.236a1.183,1.183,0,0,0-.325.608l-1.937,9.773a1.185,1.185,0,0,0,1.162,1.416,1.268,1.268,0,0,0,.231-.022l9.774-1.936a1.19,1.19,0,0,0,.608-.326l20.236-20.235A6.735,6.735,0,0,0,765.481,368.817Zm-21.658,27.819-7.683,1.522,1.523-7.683L754.436,373.7l5.9,6.421ZM763.8,376.655l-1.788,1.788-5.9-6.421,1.528-1.528a4.357,4.357,0,0,1,6.162,6.162Z" transform="translate(-733.448 -366.851)" fill="#2e2842"/>
</svg>
