<?xml version="1.0" encoding="iso-8859-1"?>
<!-- Generator: Adobe Illustrator 19.0.0, SVG Export Plug-In . SVG Version: 6.00 Build 0)  -->
<svg version="1.1" id="Capa_1" xmlns="http://www.w3.org/2000/svg" xmlns:xlink="http://www.w3.org/1999/xlink" x="0px" y="0px"
	 viewBox="0 0 512.002 512.002" style="enable-background:new 0 0 512.002 512.002;" xml:space="preserve">
<g>
	<g>
		<path fill="#ffffff" d="M182.874,271.227l37.106-19.528l-37.106-19.529l22.37-35.466l-41.899,1.64l1.64-41.899l-35.466,22.37l-19.529-37.106
			l-19.529,37.106l-35.466-22.37l1.64,41.899l-41.899-1.64l22.37,35.466L0,251.699l37.106,19.529l-22.37,35.466l41.899-1.64
			l-1.64,41.898l35.466-22.37l19.529,37.107l19.529-37.106l35.466,22.369l-1.64-41.899l41.899,1.64L182.874,271.227z
			 M109.99,306.694c-30.373,0-54.995-24.623-54.995-54.995c0-30.372,24.622-54.995,54.995-54.995
			c30.373,0,54.995,24.623,54.995,54.995C164.985,282.071,140.363,306.694,109.99,306.694z"/>
	</g>
</g>
<g>
	<g>
		<path fill="#ffffff" d="M460.661,469.408c-10.13,7.123-17.449,12.27-34.037,12.27s-23.908-5.147-34.039-12.27
			c-11.233-7.898-25.214-17.727-51.29-17.727c-26.077,0-40.057,9.83-51.29,17.727c-10.13,7.123-17.449,12.27-34.035,12.27
			c-16.586,0-23.905-5.146-34.035-12.27c-11.233-7.897-25.213-17.727-51.288-17.727c-26.077,0-40.056,9.83-51.289,17.727
			c-10.13,7.123-17.449,12.27-34.035,12.27c-16.586,0-23.904-5.146-34.034-12.27C40.056,461.51,26.077,451.68,0,451.68v29.997
			c16.585,0,23.905,5.146,34.035,12.27c11.233,7.897,25.213,17.727,51.288,17.727c26.077,0,40.056-9.83,51.289-17.727
			c10.13-7.123,17.449-12.27,34.035-12.27s23.904,5.146,34.034,12.27c11.233,7.897,25.213,17.727,51.288,17.727
			s40.056-9.829,51.289-17.727c10.13-7.123,17.449-12.27,34.036-12.27c16.587,0,23.907,5.146,34.038,12.27
			c11.233,7.898,25.214,17.727,51.291,17.727c26.077,0,40.057-9.829,51.29-17.727c10.132-7.122,17.451-12.27,34.039-12.27V451.68
			C485.875,451.68,471.895,461.509,460.661,469.408z"/>
	</g>
</g>
<g>
	<g>
		<path fill="#ffffff" d="M496.456,109.559c-16.495-35.373-44.321-63.173-79.237-79.541l7.072-19.429L396.101,0.327l-7.075,19.439
			C307.521-1.806,221.278,42.121,191.893,122.856l-6.055,16.637l17.406,3.238c28.129,5.233,55.021,15.021,79.93,29.093l3.502,1.978
			l4.021-0.039c0.506-0.005,1.012-0.007,1.517-0.007c13.24,0,26.323,1.693,38.96,4.957L261.28,370.743
			c-1.768-0.022-3.534-0.054-5.304-0.054c-46.345,0-91.86,7.589-135.281,22.556c-27.355,9.429-53.538,21.68-78.266,36.555
			c11.425,4.753,19.843,10.664,26.11,15.07c8.771,6.168,9.688,6.812,16.783,6.812c7.096,0,8.012-0.645,16.78-6.81
			c12.338-8.675,32.98-23.187,68.544-23.187c35.564,0,56.206,14.514,68.539,23.185c8.771,6.168,9.688,6.812,16.783,6.812
			c7.096,0,8.012-0.645,16.779-6.81c12.339-8.674,32.981-23.187,68.546-23.187c35.569,0,56.211,14.515,68.545,23.186
			c8.77,6.166,9.687,6.811,16.784,6.811c7.097,0,8.014-0.645,16.781-6.81c6.269-4.408,14.69-10.32,26.117-15.074
			c-24.728-14.875-50.91-27.126-78.266-36.555c-31.909-10.999-64.951-17.996-98.62-20.942l66.728-183.331
			c12.229,5.838,23.736,13.286,34.189,22.231l3.056,2.615l3.954,0.735c28.129,5.233,55.021,15.021,79.931,29.093l15.416,8.708
			l6.056-16.638C517.036,194.302,515.081,149.499,496.456,109.559z"/>
	</g>
</g>
<g>
</g>
<g>
</g>
<g>
</g>
<g>
</g>
<g>
</g>
<g>
</g>
<g>
</g>
<g>
</g>
<g>
</g>
<g>
</g>
<g>
</g>
<g>
</g>
<g>
</g>
<g>
</g>
<g>
</g>
</svg>
