<?xml version="1.0" encoding="iso-8859-1"?>
<!-- Generator: Adobe Illustrator 19.0.0, SVG Export Plug-In . SVG Version: 6.00 Build 0)  -->
<svg version="1.1" id="Layer_1" xmlns="http://www.w3.org/2000/svg" xmlns:xlink="http://www.w3.org/1999/xlink" x="0px" y="0px"
	 viewBox="0 0 512 512" style="enable-background:new 0 0 512 512;" xml:space="preserve">
<g>
	<g>
		<path fill="#2e2842" d="M383.306,353.609v-51.438c0-4.162-3.373-7.534-7.534-7.534c-4.161,0-7.534,3.372-7.534,7.534v51.438
			c-8.854,3.117-15.218,11.559-15.218,21.465c0,4.279,1.189,8.285,3.252,11.707l-23.63,25.722c-2.816,3.064-2.614,7.829,0.45,10.645
			c1.446,1.329,3.273,1.986,5.095,1.986c2.035,0,4.064-0.82,5.55-2.437l24.146-26.284c2.459,0.912,5.117,1.412,7.889,1.412
			c12.545,0,22.752-10.207,22.752-22.752C398.524,365.169,392.158,356.726,383.306,353.609z M375.772,382.757
			c-4.237,0-7.684-3.447-7.684-7.684c-0.001-4.237,3.447-7.684,7.684-7.684s7.684,3.447,7.684,7.684
			C383.456,379.311,380.009,382.757,375.772,382.757z"/>
	</g>
</g>
<g>
	<g>
		<path fill="#2e2842" d="M480.349,287.843V149.194c0.164-0.618,0.259-1.263,0.259-1.932V65.718c0-4.162-3.373-7.534-7.534-7.534h-0.259h-46.811
			V30.959c0-16.484-13.411-29.895-29.894-29.895c-16.484,0-29.894,13.411-29.894,29.895v27.226H114.652V30.959
			c0-16.484-13.411-29.895-29.894-29.895S54.864,14.476,54.864,30.959v27.226H7.793H7.534C3.373,58.185,0,61.557,0,65.719v364.129
			c0,4.162,3.373,7.534,7.534,7.534h247.705c22.657,43.656,68.29,73.554,120.779,73.554c74.981,0,135.982-61.002,135.982-135.981
			C512,341.837,500.096,311.453,480.349,287.843z M381.285,30.959c0-8.176,6.652-14.827,14.826-14.827
			c8.176,0,14.826,6.652,14.826,14.827v58.909c0,1.022-0.104,2.02-0.301,2.984c-1.385,6.75-7.372,11.843-14.525,11.843
			c-8.176,0-14.826-6.652-14.826-14.827V30.959z M69.932,30.959c0-8.176,6.651-14.827,14.826-14.827s14.826,6.652,14.826,14.827
			v58.909c0,8.176-6.652,14.827-14.826,14.827s-14.826-6.652-14.826-14.827V30.959z M15.327,73.252h39.538v16.616
			c0,16.484,13.41,29.895,29.894,29.895s29.894-13.411,29.894-29.895V73.252h251.566v16.616c0,16.484,13.411,29.895,29.894,29.895
			c16.484,0,29.894-13.411,29.894-29.895V73.252h39.278v66.477H15.327V73.252z M15.067,422.313V154.796h450.215V272.38
			c-10.04-8.736-21.252-15.903-33.251-21.329c-0.449-0.204-0.903-0.398-1.355-0.597c-0.458-0.201-0.914-0.406-1.374-0.602
			c-0.805-0.344-1.615-0.676-2.428-1.005c-0.103-0.042-0.206-0.085-0.31-0.127c-6.723-2.702-13.71-4.879-20.91-6.486v-44.268
			c0-4.162-3.373-7.534-7.534-7.534h-48.54c-4.161,0-7.534,3.372-7.534,7.534v45.302c-58.596,15.126-102.009,68.431-102.009,131.686
			c0,1.117,0.016,2.231,0.042,3.343c0.006,0.255,0.017,0.509,0.025,0.763c0.026,0.888,0.058,1.776,0.102,2.661
			c0.01,0.212,0.023,0.424,0.035,0.636c0.051,0.972,0.114,1.943,0.185,2.911c0.007,0.093,0.014,0.187,0.021,0.28
			c0.966,12.641,3.659,24.943,8.066,36.765H15.067z M390.586,205.5v33.472h-33.473V205.5H390.586z M376.018,495.867
			c-62.497,0-114.072-47.661-120.286-108.546c-0.003-0.029-0.005-0.058-0.008-0.087c-0.096-0.957-0.182-1.919-0.257-2.882
			c-0.016-0.207-0.027-0.416-0.042-0.623c-0.058-0.808-0.112-1.616-0.155-2.428c-0.023-0.458-0.038-0.917-0.056-1.376
			c-0.024-0.585-0.051-1.168-0.067-1.754c-0.027-1.07-0.043-2.143-0.043-3.217c0-66.672,54.243-120.915,120.915-120.915
			c1.075,0,2.148,0.015,3.219,0.043c0.187,0.005,0.373,0.016,0.56,0.021c0.896,0.028,1.792,0.061,2.685,0.108
			c0.142,0.007,0.281,0.019,0.423,0.027c0.948,0.054,1.895,0.116,2.841,0.192c0.068,0.006,0.137,0.013,0.206,0.018
			c13.92,1.147,27.431,4.69,39.973,10.376c0.432,0.197,0.859,0.401,1.289,0.603c0.441,0.206,0.883,0.411,1.322,0.622
			c0.771,0.374,1.539,0.755,2.301,1.145c0.075,0.038,0.151,0.075,0.226,0.114c39.075,20.062,65.871,60.783,65.871,107.643
			C496.933,441.625,442.691,495.867,376.018,495.867z"/>
	</g>
</g>
<g>
	<g>
		<path fill="#2e2842" d="M441.406,446.722c-2.557-3.284-7.292-3.872-10.573-1.313c-15.791,12.303-34.744,18.807-54.814,18.807
			c-49.22,0-89.263-40.043-89.263-89.263c0-19.587,6.222-38.175,17.993-53.754c2.508-3.321,1.85-8.045-1.47-10.553
			c-3.32-2.508-8.045-1.849-10.552,1.47c-13.763,18.217-21.039,39.946-21.039,62.838c0,57.528,46.802,104.33,104.33,104.33
			c23.457,0,45.614-7.603,64.075-21.989C443.376,454.737,443.964,450.003,441.406,446.722z"/>
	</g>
</g>
<g>
	<g>
		<path fill="#2e2842" d="M376.018,270.622c-23.868,0-46.331,7.846-64.962,22.687c-3.255,2.593-3.791,7.333-1.198,10.586
			c2.592,3.254,7.331,3.79,10.587,1.198c15.935-12.696,35.152-19.405,55.573-19.405c49.22,0,89.264,40.043,89.264,89.263
			c0,20.447-6.726,39.684-19.451,55.631c-2.595,3.252-2.062,7.992,1.189,10.587c1.388,1.108,3.047,1.645,4.694,1.645
			c2.213,0,4.406-0.97,5.893-2.835c14.878-18.643,22.741-41.13,22.741-65.028C480.349,317.425,433.546,270.622,376.018,270.622z"/>
	</g>
</g>
<g>
	<g>
		<path fill="#2e2842" d="M131.288,190.431h-48.54c-4.161,0-7.534,3.372-7.534,7.534v48.539c0,4.162,3.373,7.534,7.534,7.534h48.54
			c4.161,0,7.534-3.372,7.534-7.534v-48.539C138.822,193.804,135.449,190.431,131.288,190.431z M123.754,238.971H90.282V205.5
			h33.473V238.971z"/>
	</g>
</g>
<g>
	<g>
		<path fill="#2e2842" d="M220.232,190.431h-48.54c-4.161,0-7.534,3.372-7.534,7.534v48.539c0,4.162,3.373,7.534,7.534,7.534h48.54
			c4.161,0,7.534-3.372,7.534-7.534v-48.539C227.765,193.804,224.393,190.431,220.232,190.431z M212.698,238.971h-33.473V205.5
			h33.473V238.971z"/>
	</g>
</g>
<g>
	<g>
		<path fill="#2e2842" d="M309.176,190.432h-48.54c-4.161,0-7.534,3.372-7.534,7.534v48.539c0,4.161,3.373,7.534,7.534,7.534h48.54
			c4.161,0,7.534-3.372,7.534-7.534v-48.539C316.71,193.804,313.337,190.432,309.176,190.432z M301.643,238.97H268.17v-33.472
			h33.473V238.97z"/>
	</g>
</g>
<g>
	<g>
		<path fill="#2e2842" d="M131.288,294.638h-48.54c-4.161,0-7.534,3.372-7.534,7.534v48.54c0,4.162,3.373,7.534,7.534,7.534h48.54
			c4.161,0,7.534-3.372,7.534-7.534v-48.54C138.822,298.01,135.449,294.638,131.288,294.638z M123.754,343.178H90.282v-33.473
			h33.473V343.178z"/>
	</g>
</g>
<g>
	<g>
		<path fill="#2e2842" d="M220.232,294.638h-48.54c-4.161,0-7.534,3.372-7.534,7.534v48.54c0,4.162,3.373,7.534,7.534,7.534h48.54
			c4.161,0,7.534-3.372,7.534-7.534v-48.54C227.765,298.01,224.393,294.638,220.232,294.638z M212.698,343.178h-33.473v-33.473
			h33.473V343.178z"/>
	</g>
</g>
<g>
</g>
<g>
</g>
<g>
</g>
<g>
</g>
<g>
</g>
<g>
</g>
<g>
</g>
<g>
</g>
<g>
</g>
<g>
</g>
<g>
</g>
<g>
</g>
<g>
</g>
<g>
</g>
<g>
</g>
</svg>
