<svg id="Capa_1" enable-background="new 0 0 512 512" height="512" viewBox="0 0 512 512" width="512" xmlns="http://www.w3.org/2000/svg"><g>
	<circle fill="#fff" cx="197" cy="347" r="45"/><circle  fill="#fff" cx="45" cy="77" r="45"/>
	<path fill="#fff" d="m242 137v-15h-197c-24.814 0-45 20.186-45 45v345h90v-300h77c41.353 0 75-33.647 75-75z"/>
	<circle fill="#fff" cx="317" cy="347" r="45"/>
	<circle fill="#fff" cx="437" cy="347" r="45"/>
	<path fill="#fff" d="m437 392c-24.62 0-46.318 12.085-60 30.463-13.682-18.378-35.38-30.463-60-30.463s-46.318 12.085-60 30.463c-13.682-18.378-35.38-30.463-60-30.463-41.353 0-75 33.647-75 75v45h390v-45c0-41.353-33.647-75-75-75z"/>
	<path fill="#fff" d="m122 0v92h150v45c0 57.891-47.109 105-105 105h-45v30h390v-272zm360 182h-180v-30h180zm0-60h-180v-30h180zm0-60h-270v-30h270z"/></g></svg>