<svg id="Capa_1" enable-background="new 0 0 520 520" height="512" viewBox="0 0 520 520" width="512" xmlns="http://www.w3.org/2000/svg"><g><path fill="#fff" d="m475 125.016h-206.597l-56.861-92.85c-2.727-4.452-7.571-7.166-12.792-7.166h-153.75c-24.813 0-45 20.187-45 45v380c0 24.813 20.187 45 45 45h430c24.813 0 45-20.187 45-45v-279.984c0-24.814-20.187-45-45-45zm-96.183 195.235-88.389 88.389c-17.545 17.546-40.592 26.318-63.64 26.318-23.047 0-46.094-8.772-63.639-26.318-35.092-35.091-35.092-92.188-.001-127.279l53.033-53.033c25.345-25.343 66.581-25.343 91.924 0 25.344 25.344 25.344 66.58 0 91.924l-45.962 45.962c-7.554 7.556-17.6 11.716-28.284 11.716s-20.729-4.16-28.284-11.716c-15.596-15.595-15.596-40.972-.001-56.568l38.892-38.891c5.857-5.857 15.355-5.857 21.213 0s5.858 15.355 0 21.213l-38.891 38.891c-3.898 3.899-3.898 10.243 0 14.143 1.89 1.889 4.4 2.929 7.071 2.929s5.182-1.04 7.07-2.929l45.963-45.962c13.646-13.646 13.646-35.852 0-49.498s-35.852-13.645-49.498 0l-53.033 53.033c-23.394 23.394-23.394 61.459 0 84.854 23.396 23.394 61.461 23.394 84.854 0l88.389-88.389c5.857-5.857 15.355-5.857 21.213 0 5.859 5.856 5.859 15.354 0 21.211z"/><path fill="#fff" d="m475 95.016v-5.016c0-24.813-20.187-45-45-45h-175.42l30.63 50.016z"/></g></svg>