<?xml version="1.0" encoding="iso-8859-1"?>
<!-- Generator: Adobe Illustrator 19.0.0, SVG Export Plug-In . SVG Version: 6.00 Build 0)  -->
<svg version="1.1" id="Capa_1" xmlns="http://www.w3.org/2000/svg" xmlns:xlink="http://www.w3.org/1999/xlink" x="0px" y="0px"
	 viewBox="0 0 512 512" style="enable-background:new 0 0 512 512;" xml:space="preserve">
<g>
	<g>
		<path d="M509.071,86.613l-39.176-39.176c-3.904-3.905-10.236-3.903-14.142,0l-26.085,26.085c-1.318-3.99-5.08-6.875-9.508-6.875
			H279.817c-19.155,0-36.105,9.62-46.273,24.283c-10.168-14.663-27.118-24.283-46.273-24.283H46.917
			c-5.523,0-10.012,4.489-10.012,10.012v16.697H10c-5.523,0-10,4.478-10,10v354.135c0,5.522,4.477,10,10,10h447.076
			c5.523,0,10-4.478,10-10V142.752l41.996-41.996C512.977,96.85,512.976,90.518,509.071,86.613z M223.538,447.491H20V113.356h16.905
			v292.909c0,5.522,4.477,10,10,10h176.633V447.491z M223.538,396.265H56.905v-28.357h130.366c13.677,0,26.413,4.944,36.267,14
			V396.265z M187.271,347.907H56.905V86.647h130.366c20.002,0,36.273,16.272,36.273,36.273v167.481c0,5.522,4.477,10,10,10
			s10-4.478,10-10v-167.48c0-20.001,16.272-36.273,36.273-36.273H410.17v6.371L297.345,205.844c-1.367,1.367-2.309,3.102-2.71,4.993
			l-10.568,49.744c-0.704,3.312,0.316,6.755,2.71,9.149c1.895,1.895,5.723,3.269,9.149,2.71l49.744-10.567
			c1.891-0.401,3.625-1.343,4.993-2.71l59.507-59.507v148.251H279.817c-16.901,0-33.297,5.837-46.273,16.26
			C220.567,353.743,204.172,347.907,187.271,347.907z M313.586,220.054c4.063,4.063,9.122,6.848,14.753,8.198
			c1.239,5.485,4.009,10.563,8.115,14.67c0.129,0.128,0.258,0.256,0.389,0.382l-30.014,6.376l6.376-30.014
			C313.331,219.796,313.457,219.926,313.586,220.054z M410.171,367.908v28.357H243.538v-14.346
			c9.856-9.063,22.597-14.011,36.28-14.011H410.171z M447.076,447.491H243.538v-31.226h176.633c5.523,0,10-4.478,10-10V179.997
			c0-0.112-0.003-0.223-0.006-0.334l16.911-16.911V447.491z M351.76,229.783c-0.409-0.303-0.797-0.638-1.163-1.003
			c-2.228-2.229-3.293-5.306-2.92-8.443c0.347-2.923-0.611-5.85-2.619-8.002c-1.896-2.032-4.546-3.178-7.311-3.178
			c-0.163,0-0.326,0.004-0.49,0.012c-2.729,0.143-6.595-0.323-9.529-3.258c-0.365-0.365-0.7-0.754-1.002-1.162L431.883,99.592
			l25.034,25.034L351.76,229.783z M471.059,110.483l-25.034-25.034l16.799-16.799l25.034,25.034L471.059,110.483z"/>
	</g>
</g>
<g>
	<g>
		<path d="M243.35,327.121c-0.13-0.641-0.32-1.271-0.57-1.88c-0.25-0.601-0.56-1.181-0.92-1.721c-0.37-0.55-0.78-1.06-1.24-1.52
			c-0.47-0.46-0.98-0.88-1.52-1.25c-0.55-0.36-1.13-0.66-1.73-0.91c-0.6-0.25-1.23-0.45-1.87-0.57c-1.29-0.26-2.62-0.26-3.91,0
			c-0.64,0.12-1.27,0.32-1.87,0.57c-0.6,0.25-1.18,0.55-1.73,0.91c-0.54,0.37-1.06,0.79-1.52,1.25c-0.46,0.46-0.88,0.97-1.24,1.52
			c-0.361,0.54-0.67,1.12-0.92,1.721c-0.25,0.609-0.44,1.239-0.57,1.88c-0.13,0.64-0.2,1.3-0.2,1.949c0,0.65,0.07,1.31,0.2,1.95
			c0.129,0.641,0.32,1.27,0.57,1.87c0.25,0.61,0.56,1.19,0.92,1.73c0.36,0.55,0.78,1.06,1.24,1.52c0.46,0.46,0.98,0.88,1.52,1.24
			c0.55,0.36,1.13,0.67,1.73,0.92c0.6,0.25,1.23,0.44,1.87,0.57c0.65,0.13,1.3,0.199,1.95,0.199c0.66,0,1.31-0.069,1.96-0.199
			c0.64-0.13,1.27-0.32,1.87-0.57c0.6-0.25,1.18-0.56,1.73-0.92c0.54-0.36,1.05-0.78,1.52-1.24c1.86-1.86,2.93-4.439,2.93-7.07
			C243.55,328.421,243.48,327.761,243.35,327.121z"/>
	</g>
</g>
<g>
</g>
<g>
</g>
<g>
</g>
<g>
</g>
<g>
</g>
<g>
</g>
<g>
</g>
<g>
</g>
<g>
</g>
<g>
</g>
<g>
</g>
<g>
</g>
<g>
</g>
<g>
</g>
<g>
</g>
</svg>
