<svg id="Capa_1" enable-background="new 0 0 512 512" height="512" viewBox="0 0 512 512" width="512" xmlns="http://www.w3.org/2000/svg"><g><path d="m2.562 10.199v77.36l264.15 20 242.727-20v-77.36c-.001-5.633-4.567-10.199-10.199-10.199h-486.48c-5.632 0-10.198 4.566-10.198 10.199z" fill="#80b6fc"/><path d="m499.24 0h-31.561c5.633 0 10.199 4.566 10.199 10.199v77.36h31.561v-77.36c-.001-5.633-4.567-10.199-10.199-10.199z" fill="#62a4fb"/><path d="m2.562 85.558v344.423c0 5.633 4.566 10.199 10.199 10.199h486.479c5.633 0 10.199-4.566 10.199-10.199v-344.423z" fill="#ddebfd"/><path d="m477.878 85.558v310.767c0 5.632-4.566 10.199-10.199 10.199h-465.117v23.457c0 5.632 4.566 10.199 10.199 10.199h486.479c5.633 0 10.199-4.566 10.199-10.199v-344.423z" fill="#bed9fd"/><g><path d="m230.008 246.195c-22.384-10.068-49.582-15.975-78.917-15.975s-56.532 5.907-78.917 15.975c-1.131 5.381-6.73 10.957-6.73 16.675 0 8.036 6.181 15.794 8.369 23.119 2.78-.649 5.642-1.002 8.571-1.002 24.988 0 45.455 24.521 47.392 55.677 6.791 1.856 13.936 7.853 21.315 7.853s14.525-5.997 21.315-7.853c1.937-31.156 22.404-55.677 47.392-55.677 2.928 0 5.79.353 8.571 1.002 2.188-7.324 9.369-15.083 9.369-23.119 0-5.718-6.599-11.295-7.73-16.675z" fill="#766d78"/><circle cx="151.091" cy="273.812" fill="#e5936a" r="15.888"/><path d="m151.091 154.763c-59.706 0-108.107 48.401-108.107 108.106 0 59.706 48.401 108.107 108.107 108.107s108.107-48.401 108.107-108.107c0-59.705-48.401-108.106-108.107-108.106zm0 188.753c-44.54 0-80.647-36.107-80.647-80.647s36.107-80.647 80.647-80.647 80.647 36.107 80.647 80.647-36.107 80.647-80.647 80.647z" fill="#8c818f"/></g><circle cx="68.714" cy="42.779" fill="#df646e" r="15.298"/><circle cx="132.729" cy="42.779" fill="#eec06b" r="15.298"/><circle cx="196.745" cy="42.779" fill="#88f2a9" r="15.298"/><g fill="#80b6fc"><path d="m447.329 153.131h-132.7c-4.105 0-7.432-3.327-7.432-7.431s3.327-7.432 7.432-7.432h132.701c4.105 0 7.431 3.327 7.431 7.432 0 4.104-3.327 7.431-7.432 7.431z"/><path d="m447.329 205.82h-132.7c-4.105 0-7.432-3.327-7.432-7.432 0-4.104 3.327-7.431 7.432-7.431h132.701c4.105 0 7.431 3.327 7.431 7.431 0 4.105-3.327 7.432-7.432 7.432z"/><path d="m391.442 258.509h-76.813c-4.105 0-7.432-3.327-7.432-7.431s3.327-7.432 7.432-7.432h76.813c4.105 0 7.431 3.327 7.431 7.432 0 4.103-3.326 7.431-7.431 7.431z"/></g><path d="m419.17 339.65v12.73c0 4.1-3.33 7.43-7.43 7.43-4.11 0-7.43-3.33-7.43-7.43v-12.73c0-21.52-17.51-39.02-39.02-39.02-21.52 0-39.02 17.5-39.02 39.02v135.77c0 20.17-16.41 36.58-36.58 36.58s-36.58-16.41-36.58-36.58v-35.24h14.86v35.24c0 11.98 9.74 21.72 21.72 21.72 11.97 0 21.71-9.74 21.71-21.72v-135.77c0-29.71 24.18-53.89 53.89-53.89s53.88 24.18 53.88 53.89z" fill="#766d78"/><path d="m425.239 507.323h-27c-21.311 0-38.588-17.276-38.588-38.588v-77.769c0-21.311 17.276-38.588 38.588-38.588h27c21.311 0 38.588 17.276 38.588 38.588v77.769c0 21.312-17.276 38.588-38.588 38.588z" fill="#e5936a"/><path d="m425.239 352.379h-22.668c21.312 0 38.588 17.276 38.588 38.588v77.769c0 21.312-17.276 38.588-38.588 38.588h22.668c21.312 0 38.588-17.276 38.588-38.588v-77.769c0-21.312-17.276-38.588-38.588-38.588z" fill="#df6937"/><path d="m411.74 411.96c-6.281 0-11.373-5.092-11.373-11.373v-9.903c0-6.281 5.092-11.373 11.373-11.373s11.373 5.092 11.373 11.373v9.903c0 6.281-5.092 11.373-11.373 11.373z" fill="#ddebfd"/></g></svg>