<?xml version="1.0" encoding="iso-8859-1"?>
<!-- Generator: Adobe Illustrator 16.0.0, SVG Export Plug-In . SVG Version: 6.00 Build 0)  -->
<!DOCTYPE svg PUBLIC "-//W3C//DTD SVG 1.1//EN" "http://www.w3.org/Graphics/SVG/1.1/DTD/svg11.dtd">
<svg version="1.1" id="Capa_1" xmlns="http://www.w3.org/2000/svg" xmlns:xlink="http://www.w3.org/1999/xlink" x="0px" y="0px"
	 width="48px" height="48px" viewBox="0 0 48 48" style="enable-background:new 0 0 48 48;" xml:space="preserve">
<g>
	<path d="M29.383,20.547l2.528-0.51v1.607l-2.546-0.447l-0.016,0.048l1.732,1.956l-1.418,0.827l-0.906-2.464l-0.029,0.016
		l-0.927,2.45l-1.364-0.827l1.697-1.988v-0.032l-2.494,0.462v-1.607l2.465,0.493l0.015-0.033l-1.685-2.005l1.414-0.811l0.892,2.435
		h0.032l0.906-2.435l1.399,0.797l-1.718,2.019L29.383,20.547z M22.141,20.497l1.717-2.019l-1.399-0.797l-0.907,2.435h-0.029
		l-0.895-2.435l-1.416,0.811l1.689,2.005l-0.018,0.033l-2.466-0.493v1.607l2.498-0.462v0.032l-1.703,1.988l1.37,0.826l0.924-2.449
		l0.03-0.016l0.908,2.465l1.416-0.827l-1.733-1.956l0.017-0.048l2.545,0.447v-1.607l-2.53,0.51L22.141,20.497z M14.915,20.497
		l1.717-2.019l-1.399-0.797l-0.907,2.435h-0.031l-0.891-2.435l-1.415,0.811l1.685,2.005l-0.015,0.033l-2.467-0.493v1.607
		l2.497-0.462v0.032l-1.7,1.988l1.367,0.826l0.925-2.449l0.031-0.016l0.907,2.465l1.416-0.828l-1.732-1.956l0.016-0.048l2.544,0.447
		v-1.607l-2.529,0.51L14.915,20.497z M48,9.026v22.902c0,2.921-2.366,5.285-5.284,5.285h-10.79v3.083h4.957
		c1.092,0,1.979,0.885,1.979,1.982c0,1.095-0.887,1.979-1.979,1.979H11.118c-1.095,0-1.982-0.885-1.982-1.979
		s0.888-1.982,1.982-1.982h4.955v-3.083H5.285C2.367,37.214,0,34.849,0,31.929V9.026c0-2.917,2.367-5.283,5.285-5.283h37.434
		C45.634,3.743,48,6.109,48,9.026z M40.891,16.644c0-1.435-1.164-2.596-2.602-2.596H9.709c-1.438,0-2.601,1.163-2.601,2.598v8.104
		c0,1.437,1.164,2.599,2.601,2.599h28.58c1.438,0,2.602-1.164,2.602-2.599V16.644z M32.867,25.207h4.169V23.6h-4.169V25.207z"/>
</g>
<g>
</g>
<g>
</g>
<g>
</g>
<g>
</g>
<g>
</g>
<g>
</g>
<g>
</g>
<g>
</g>
<g>
</g>
<g>
</g>
<g>
</g>
<g>
</g>
<g>
</g>
<g>
</g>
<g>
</g>
</svg>
