<svg xmlns="http://www.w3.org/2000/svg" width="37.273" height="36.33" viewBox="0 0 37.273 36.33">
  <g id="Group_21" data-name="Group 21" transform="translate(-860.852 -615.666)">
    <path id="Path_37" data-name="Path 37" d="M892.854,631.111a1.5,1.5,0,0,0-2.122,0l-5.853,5.853-5.853-5.853a1.5,1.5,0,0,0-2.121,2.121l5.853,5.853-5.853,5.853a1.5,1.5,0,0,0,2.121,2.122l5.853-5.853,5.853,5.853a1.5,1.5,0,0,0,2.122-2.122L887,639.085l5.854-5.853A1.5,1.5,0,0,0,892.854,631.111Z" transform="translate(-5.39 -5.254)" fill="#2e2842"/>
    <path id="Path_38" data-name="Path 38" d="M897.733,625.894c-.463-3.53-1.71-6.02-3.708-7.4-2.47-1.708-5.333-2.053-7.857-2.359l-.51-.062a49.158,49.158,0,0,0-15.734.508,16.326,16.326,0,0,0-3.6,1.054,7.948,7.948,0,0,0-3.459,2.818c-1.3,1.955-1.578,4.476-1.736,6.684-.166,2.318-.327,5.071-.262,7.913.024,1.063.057,2.3.141,3.53a20.279,20.279,0,0,0,1.841,7.933,8.763,8.763,0,0,0,7.025,4.595,66.2,66.2,0,0,0,9.285.887h.2a51.627,51.627,0,0,0,9.3-.951c2.441-.442,4.943-1.118,6.7-3.058,1.9-2.089,2.253-5.157,2.453-8.12A71.263,71.263,0,0,0,897.733,625.894ZM895.5,639.709c-.173,2.554-.459,5.178-1.855,6.713-1.358,1.5-3.5,1.99-5.395,2.333a50.086,50.086,0,0,1-9.081.912,64.113,64.113,0,0,1-8.959-.863c-2.681-.394-4.267-1.4-5.3-3.376a18.184,18.184,0,0,1-1.58-7.007c-.081-1.182-.112-2.388-.137-3.425-.062-2.744.095-5.429.257-7.693.137-1.913.366-4.078,1.353-5.561a5.592,5.592,0,0,1,2.474-1.983,14.181,14.181,0,0,1,3.085-.892,47.892,47.892,0,0,1,9.022-.873,46.859,46.859,0,0,1,5.985.387l.521.064c2.368.286,4.817.583,6.815,1.962,1.433.992,2.349,2.939,2.723,5.79A69.166,69.166,0,0,1,895.5,639.709Z" fill="#2e2842"/>
  </g>
</svg>
