<svg xmlns="http://www.w3.org/2000/svg" width="28.871" height="35.33" viewBox="0 0 28.871 35.33">
  <g id="Group_10" data-name="Group 10" transform="translate(-966.607 -363.18)">
    <path id="Path_19" data-name="Path 19" d="M994.466,368.554h-7.575a6.378,6.378,0,0,0-12.6,0H967.62a1.013,1.013,0,0,0,0,2.025h26.846a1.013,1.013,0,0,0,0-2.025Zm-13.873-3.348a4.364,4.364,0,0,1,4.237,3.348h-8.475A4.365,4.365,0,0,1,980.593,365.205Z" transform="translate(0)" fill="#2e2842"/>
    <path id="Path_20" data-name="Path 20" d="M993.253,375.931a1.011,1.011,0,0,0-1.1.915l-1.678,18.138a.866.866,0,0,0,0,.093,4.223,4.223,0,0,1-4.218,4.218h-8a4.223,4.223,0,0,1-4.218-4.218.836.836,0,0,0,0-.093l-1.678-18.138a1.012,1.012,0,0,0-2.016.186l1.673,18.094a6.25,6.25,0,0,0,6.243,6.195h8a6.25,6.25,0,0,0,6.243-6.195l1.674-18.094A1.012,1.012,0,0,0,993.253,375.931Z" transform="translate(-1.211 -2.811)" fill="#2e2842"/>
    <path id="Path_21" data-name="Path 21" d="M983.552,391.87v-9.485a1.013,1.013,0,1,0-2.025,0v9.485a1.013,1.013,0,1,0,2.025,0Z" transform="translate(-4.847 -5.183)" fill="#2e2842"/>
    <path id="Path_22" data-name="Path 22" d="M993.838,398.041v-9.486a1.013,1.013,0,1,0-2.025,0v9.486a1.013,1.013,0,0,0,2.025,0Z" transform="translate(-8.188 -6.941)" fill="#2e2842"/>
  </g>
</svg>
