<svg xmlns="http://www.w3.org/2000/svg" width="41.039" height="40" viewBox="0 0 41.039 40">
  <g id="Group_68" data-name="Group 68" transform="translate(-734.879 -793.224)">
    <path id="Path_78" data-name="Path 78" d="M775.487,804.484c-.512-3.888-1.884-6.629-4.083-8.146-2.717-1.879-5.866-2.261-8.644-2.6l-.569-.069a54.146,54.146,0,0,0-17.323.559,17.954,17.954,0,0,0-3.963,1.161h0a8.743,8.743,0,0,0-3.809,3.1c-1.43,2.15-1.738,4.926-1.912,7.36-.183,2.556-.36,5.591-.289,8.712.029,1.234.064,2.551.156,3.886a22.3,22.3,0,0,0,2.027,8.734,9.649,9.649,0,0,0,7.735,5.06,72.866,72.866,0,0,0,10.223.977h.224a56.837,56.837,0,0,0,10.245-1.047c2.688-.486,5.441-1.232,7.38-3.367,2.089-2.3,2.479-5.678,2.7-8.941A78.468,78.468,0,0,0,775.487,804.484ZM773.031,819.7c-.191,2.812-.506,5.7-2.042,7.391-1.5,1.648-3.852,2.19-5.941,2.569a56.866,56.866,0,0,1-10,1,70.609,70.609,0,0,1-9.864-.951c-2.951-.434-4.7-1.545-5.841-3.717a20.065,20.065,0,0,1-1.739-7.716c-.087-1.282-.121-2.566-.149-3.77-.069-3.016.1-5.975.283-8.471.151-2.107.4-4.491,1.489-6.123a6.143,6.143,0,0,1,2.722-2.184,15.6,15.6,0,0,1,3.4-.982,51.7,51.7,0,0,1,16.521-.535l.581.071c2.6.316,5.3.642,7.5,2.161,1.577,1.089,2.586,3.233,3,6.373A76.285,76.285,0,0,1,773.031,819.7Z" transform="translate(0 0)" fill="#2e2842"/>
    <path id="Path_79" data-name="Path 79" d="M751.471,812.737a2.565,2.565,0,1,0-2.565-2.565A2.568,2.568,0,0,0,751.471,812.737Zm0-2.754a.19.19,0,0,1,.189.189c0,.208-.377.208-.377,0A.189.189,0,0,1,751.471,809.982Z" transform="translate(-2.166 -2.225)" fill="#2e2842"/>
    <path id="Path_80" data-name="Path 80" d="M765.263,819.206l-1.786,1.584a9.885,9.885,0,0,1-13.4-.1l-1.615-1.472a1.179,1.179,0,0,0-1.766.18,1.474,1.474,0,0,0,.164,1.94l1.615,1.471a12.23,12.23,0,0,0,16.578.124l1.786-1.584a1.47,1.47,0,0,0,.187-1.936A1.179,1.179,0,0,0,765.263,819.206Z" transform="translate(-1.456 -4.08)" fill="#2e2842"/>
    <path id="Path_81" data-name="Path 81" d="M770.312,809.294a11.207,11.207,0,0,0-3.44-.477,5.694,5.694,0,0,1,2.428-1.474,1.377,1.377,0,0,0-.676-2.67,8.04,8.04,0,0,0-5.592,5.592,1.378,1.378,0,0,0,1.772,1.641,8.388,8.388,0,0,1,4.638,0,1.377,1.377,0,0,0,.871-2.613Z" transform="translate(-4.519 -1.816)" fill="#2e2842"/>
  </g>
</svg>
