<svg id="Capa_1" enable-background="new 0 0 512 512" height="512" viewBox="0 0 512 512" width="512" xmlns="http://www.w3.org/2000/svg"><g><g><g>
	<path d="m341.852 121.596h-231.852c-5.522 0-10-4.477-10-10s4.478-10 10-10h231.852c5.522 0 10 4.477 10 10s-4.478 10-10 10z"/></g><g><g>
		<path fill="#2e2842" d="m402 75.638h-100.794c-5.522 0-10-4.477-10-10s4.478-10 10-10h100.794c5.522 0 10 4.477 10 10s-4.478 10-10 10z"/></g><g>
			<path fill="#2e2842" d="m210.794 75.638h-100.794c-5.522 0-10-4.477-10-10s4.478-10 10-10h100.794c5.523 0 10 4.477 10 10s-4.478 10-10 10z"/></g><g>
				<path fill="#2e2842" d="m256.18 75.64c-4.183 0-7.995-2.709-9.405-6.636-1.39-3.872-.201-8.322 2.936-10.987 3.269-2.777 8.1-3.14 11.745-.873 3.494 2.173 5.348 6.407 4.534 10.446-.929 4.613-5.095 8.05-9.81 8.05z"/></g></g>
	<path fill="#2e2842" d="m189.368 373.969c14.781-13.68 24.046-33.217 24.046-54.873 0-41.273-33.651-74.852-75.014-74.852s-75.015 33.579-75.015 74.852c0 21.656 9.264 41.193 24.046 54.873-25.44.737-45.909 21.662-45.909 47.277v80.754c0 5.523 4.478 10 10 10h173.755c5.523 0 10-4.477 10-10v-80.754c0-25.615-20.468-46.539-45.909-47.277zm-105.982-54.873c0-30.246 24.68-54.852 55.015-54.852s55.014 24.606 55.014 54.852-24.679 54.852-55.014 54.852-55.015-24.606-55.015-54.852zm131.891 172.904h-153.755v-70.754c0-15.052 12.246-27.298 27.298-27.298h99.159c15.052 0 27.298 12.246 27.298 27.298z"/>
	<path fill="#2e2842" d="m424.568 373.969c14.782-13.68 24.046-33.217 24.046-54.873 0-41.273-33.651-74.852-75.015-74.852-41.362 0-75.014 33.579-75.014 74.852 0 21.656 9.264 41.193 24.046 54.873-25.44.737-45.909 21.662-45.909 47.277v80.754c0 5.523 4.478 10 10 10h173.755c5.522 0 10-4.477 10-10v-80.754c.001-25.615-20.468-46.539-45.909-47.277zm-105.982-54.873c0-30.246 24.679-54.852 55.014-54.852s55.015 24.606 55.015 54.852-24.68 54.852-55.015 54.852-55.014-24.606-55.014-54.852zm131.892 172.904h-153.755v-70.754c0-15.052 12.246-27.298 27.298-27.298h99.159c15.052 0 27.298 12.246 27.298 27.298z"/>
	<path fill="#2e2842" d="m376.606 215.02c-2.103 0-4.186-.663-5.931-1.948l-43.936-32.353h-141.479l-43.936 32.353c-2.797 2.061-6.465 2.521-9.684 1.216-3.22-1.304-5.532-4.186-6.107-7.611l-4.362-25.958h-70.873c-15.108 0-27.4-12.285-27.4-27.384v-125.95c-.001-15.1 12.291-27.385 27.4-27.385h411.404c15.108 0 27.4 12.285 27.4 27.385v125.95c0 15.1-12.292 27.384-27.4 27.384h-70.873l-4.362 25.958c-.575 3.426-2.888 6.308-6.107 7.611-1.212.491-2.486.732-3.754.732zm-194.63-54.301h148.049c2.134 0 4.211.683 5.93 1.948l33.484 24.657 3.069-18.262c.809-4.816 4.978-8.343 9.861-8.343h79.333c4.081 0 7.4-3.313 7.4-7.384v-125.95c0-4.072-3.319-7.385-7.4-7.385h-411.404c-4.081 0-7.4 3.313-7.4 7.385v125.95c0 4.072 3.319 7.384 7.4 7.384h79.333c4.884 0 9.053 3.527 9.861 8.343l3.069 18.262 33.484-24.657c1.72-1.265 3.797-1.948 5.931-1.948z"/></g></g>
</svg>