<svg height="512" viewBox="0 0 60 60" width="512" xmlns="http://www.w3.org/2000/svg"><g id="Page-1" fill="none" fill-rule="evenodd"><g id="006---Completed-Schedule">
	<path fill="#2e2842" id="Shape" d="m50 29.178v-23.178c0-1.65685425-1.3431458-3-3-3h-1c0-1.65685425-1.3431458-3-3-3s-3 1.34314575-3 3h-30c-.00000002-1.65685423-1.34314577-2.99999996-3-2.99999996s-2.99999998 1.34314573-3 2.99999996h-1c-1.65685425 0-3 1.34314575-3 3v39c0 1.6568542 1.34314575 3 3 3h25.527c1.8828519 7.2941026 8.6014213 12.2847266 16.128469 11.9803963 7.5270477-.3043302 13.8207884-5.8210623 15.1086332-13.2433611s-2.7795468-14.7367933-9.7641022-17.5590352zm-8-26.178c0-.55228475.4477153-1 1-1s1 .44771525 1 1v2c0 .55228475-.4477153 1-1 1s-1-.44771525-1-1zm-36 0c0-.55228475.44771525-1 1-1s1 .44771525 1 1v2c0 .55228475-.44771525 1-1 1s-1-.44771525-1-1zm-3 43c-.55228475 0-1-.4477153-1-1v-39c0-.55228475.44771525-1 1-1h1c.00000002 1.65685423 1.34314577 2.99999996 3 2.99999996s2.99999998-1.34314573 3-2.99999996h30c0 1.65685425 1.3431458 3 3 3s3-1.34314575 3-3h1c.5522847 0 1 .44771525 1 1v22.527c-4.4548274-1.1802115-9.2029065-.3566024-13 2.255v-.782c0-1.1045695-.8954305-2-2-2h-5c-1.1045695 0-2 .8954305-2 2v3c0 1.1045695.8954305 2 2 2h2.782c-2.2195818 3.2098223-3.1620144 7.1321677-2.643 11zm29.411-13h-4.411v-3h5v2.411c-.2.189-.4.389-.589.589zm11.589 25c-5.6624714 0-10.7673795-3.4109905-12.9343135-8.6424319-2.166934-5.2314415-.9691534-11.2530911 3.0348186-15.257063 4.0039719-4.003972 10.0256215-5.2017526 15.257063-3.0348186 5.2314414 2.166934 8.6424319 7.2718421 8.6424319 12.9343135-.0082673 7.7285595-6.2714405 13.9917327-14 14z"/>
	<path fill="#2e2842" id="Shape" d="m42.983 33c-.1011393-.5423939-.6224663-.9003867-1.165-.8-4.0770982.7703739-7.4744864 3.5773715-9 7.436-.097999.2475177-.0932601.5238943.0131669.7679068s.3057566.4355177.5538331.5320932c.115897.0457467.2394013.0691582.364.069.4114098-.0000031.7808354-.2519743.931-.635 1.2707106-3.2165459 4.1018574-5.5569605 7.5-6.2.2620772-.0478206.4942399-.1982378.6449902-.4178866.1507504-.2196488.2076257-.4903702.1580098-.7521134z"/>
	<path fill="#2e2842" id="Shape" d="m11 10h-5c-1.1045695 0-2 .8954305-2 2v3c0 1.1045695.8954305 2 2 2h5c1.1045695 0 2-.8954305 2-2v-3c0-1.1045695-.8954305-2-2-2zm-5 5v-3h5v3z"/>
	<path fill="#2e2842" id="Shape" d="m22 10h-5c-1.1045695 0-2 .8954305-2 2v3c0 1.1045695.8954305 2 2 2h5c1.1045695 0 2-.8954305 2-2v-3c0-1.1045695-.8954305-2-2-2zm-5 5v-3h5v3z"/>
	<path fill="#2e2842" id="Shape" d="m28 17h5c1.1045695 0 2-.8954305 2-2v-3c0-1.1045695-.8954305-2-2-2h-5c-1.1045695 0-2 .8954305-2 2v3c0 1.1045695.8954305 2 2 2zm0-5h5v3h-5z"/>
	<path fill="#2e2842" id="Shape" d="m39 17h5c1.1045695 0 2-.8954305 2-2v-3c0-1.1045695-.8954305-2-2-2h-5c-1.1045695 0-2 .8954305-2 2v3c0 1.1045695.8954305 2 2 2zm0-5h5v3h-5z"/>
	<path fill="#2e2842" id="Shape" d="m11 19h-5c-1.1045695 0-2 .8954305-2 2v3c0 1.1045695.8954305 2 2 2h5c1.1045695 0 2-.8954305 2-2v-3c0-1.1045695-.8954305-2-2-2zm-5 5v-3h5v3z"/>
	<path fill="#2e2842" id="Shape" d="m22 19h-5c-1.1045695 0-2 .8954305-2 2v3c0 1.1045695.8954305 2 2 2h5c1.1045695 0 2-.8954305 2-2v-3c0-1.1045695-.8954305-2-2-2zm-5 5v-3h5v3z"/>
	<path fill="#2e2842" id="Shape" d="m28 26h5c1.1045695 0 2-.8954305 2-2v-3c0-1.1045695-.8954305-2-2-2h-5c-1.1045695 0-2 .8954305-2 2v3c0 1.1045695.8954305 2 2 2zm0-5h5v3h-5z"/>
    <path fill="#2e2842" id="Shape" d="m39 26h5c1.1045695 0 2-.8954305 2-2v-3c0-1.1045695-.8954305-2-2-2h-5c-1.1045695 0-2 .8954305-2 2v3c0 1.1045695.8954305 2 2 2zm0-5h5v3h-5z"/>
	<path fill="#2e2842" id="Shape" d="m11 28h-5c-1.1045695 0-2 .8954305-2 2v3c0 1.1045695.8954305 2 2 2h5c1.1045695 0 2-.8954305 2-2v-3c0-1.1045695-.8954305-2-2-2zm-5 5v-3h5v3z"/>
	<path fill="#2e2842" id="Shape" d="m22 28h-5c-1.1045695 0-2 .8954305-2 2v3c0 1.1045695.8954305 2 2 2h5c1.1045695 0 2-.8954305 2-2v-3c0-1.1045695-.8954305-2-2-2zm-5 5v-3h5v3z"/>
	<path fill="#2e2842" id="Shape" d="m11 37h-5c-1.1045695 0-2 .8954305-2 2v3c0 1.1045695.8954305 2 2 2h5c1.1045695 0 2-.8954305 2-2v-3c0-1.1045695-.8954305-2-2-2zm-5 5v-3h5v3z"/>
	<path fill="#2e2842" id="Shape" d="m22 37h-5c-1.1045695 0-2 .8954305-2 2v3c0 1.1045695.8954305 2 2 2h5c1.1045695 0 2-.8954305 2-2v-3c0-1.1045695-.8954305-2-2-2zm-5 5v-3h5v3z"/>
	<path fill="#2e2842" id="Shape" d="m50.5 36.132c-.4794043-.2737673-1.0899643-.1072509-1.364.372l-7.355 12.863-3.074-3.074c-.3923789-.3789722-1.0160848-.3735524-1.4018186.0121814s-.3911536 1.0094397-.0121814 1.4018186l4 4c.2203885.2202424.5308402.3251755.8396544.2838042s.5806991-.224319.7353456-.4948042l8-14c.2744339-.4783569.109796-1.0885908-.368-1.364z"/><circle id="Oval" cx="33" cy="44" r="1"/></g></g></svg>