<svg xmlns="http://www.w3.org/2000/svg" width="27.933" height="27.187" viewBox="0 0 27.933 27.187">
  <g id="Group_24" data-name="Group 24" transform="translate(-406.067 -735.334)" opacity="0.79">
    <path id="Path_53" data-name="Path 53" d="M433.945,760.55l-2.056-5.68a13.593,13.593,0,1,0-5.064,5.611l6.074,1.274a.914.914,0,0,0,1.047-1.205Zm-7.111-1.934a.911.911,0,0,0-.692.132,11.753,11.753,0,1,1,3.944-4.362.917.917,0,0,0-.05.736l1.632,4.508Z" fill="#2e2842"/>
    <path id="Path_54" data-name="Path 54" d="M430.221,756.178H419.4a.914.914,0,1,0,0,1.828h10.816a.914.914,0,1,0,0-1.828Z" transform="translate(-4.854 -8.144)" fill="#2e2842"/>
    <path id="Path_55" data-name="Path 55" d="M423.974,762.413H419.4a.914.914,0,0,0,0,1.828h4.569a.914.914,0,0,0,0-1.828Z" transform="translate(-4.854 -10.579)" fill="#2e2842"/>
    <path id="Path_56" data-name="Path 56" d="M430.221,749.356H419.4a.914.914,0,1,0,0,1.828h10.816a.914.914,0,1,0,0-1.828Z" transform="translate(-4.854 -5.478)" fill="#2e2842"/>
  </g>
</svg>
