<?xml version="1.0" encoding="iso-8859-1"?>
<!-- Generator: Adobe Illustrator 19.0.0, SVG Export Plug-In . SVG Version: 6.00 Build 0)  -->
<svg version="1.1" id="Capa_1" xmlns="http://www.w3.org/2000/svg" xmlns:xlink="http://www.w3.org/1999/xlink" x="0px" y="0px"
	 viewBox="0 0 512 512" style="enable-background:new 0 0 512 512;" xml:space="preserve">
<path style="fill:#FFC143;" d="M512,256c0,141.385-114.615,256-256,256S0,397.385,0,256S114.615,0,256,0S512,114.615,512,256z"/>
<path style="fill:#328093;" d="M370,102v383.258c-6.362,3.17-12.877,6.08-19.526,8.723C347.619,477.521,333.277,465,316,465h-15H169
	h-40c-4.648,0-8.544,3.176-9.665,7.473c-6.656-4.212-13.112-8.712-19.335-13.502V102c0-5.523,4.477-10,10-10h250
	C365.523,92,370,96.477,370,102z"/>
<path style="fill:#235967;" d="M120,472.896c-6.893-4.332-13.57-8.975-20-13.925V102c0-5.523,4.477-10,10-10h30
	c-5.523,0-10,4.477-10,10v329c-5.523,0-10,4.477-10,10V472.896z"/>
<path style="fill:#174550;" d="M215,118c0,5.523-4.477,10-10,10s-10-4.477-10-10s4.477-10,10-10S215,112.477,215,118z M265,108h-30
	c-5.523,0-10,4.477-10,10s4.477,10,10,10h30c5.523,0,10-4.477,10-10S270.523,108,265,108z"/>
<path style="fill:#FFF5F5;" d="M351,132v361.781C321.625,505.528,289.57,512,256,512c-50.396,0-97.385-14.572-137-39.718V132
	c0-5.523,4.477-10,10-10h40v10c0,5.523,4.477,10,10,10h112c5.523,0,10-4.477,10-10v-10h40C346.523,122,351,126.477,351,132z"/>
<path style="fill:#FFE7BF;" d="M351,132v361.781c-9.404,3.761-19.084,6.974-29,9.613V122h19C346.523,122,351,126.477,351,132z"/>
<path style="fill:#FFD98F;" d="M330,182v11c0,1.105-0.895,2-2,2H142c-1.105,0-2-0.895-2-2v-11c0-1.105,0.895-2,2-2h186
	C329.105,180,330,180.895,330,182z M142,225h92c1.105,0,2-0.895,2-2v-11c0-1.105-0.895-2-2-2h-92c-1.105,0-2,0.895-2,2v11
	C140,224.105,140.895,225,142,225z M328,310H142c-1.105,0-2,0.895-2,2v11c0,1.105,0.895,2,2,2h186c1.105,0,2-0.895,2-2v-11
	C330,310.895,329.105,310,328,310z M278,340H142c-1.105,0-2,0.895-2,2v11c0,1.105,0.895,2,2,2h136c1.105,0,2-0.895,2-2v-11
	C280,340.895,279.105,340,278,340z"/>
<path style="fill:#FFE1A8;" d="M180,261.5c0,11.046-8.954,20-20,20s-20-8.954-20-20c0-11.046,8.954-20,20-20S180,250.454,180,261.5z
	 M210,241.5c-11.046,0-20,8.954-20,20c0,11.046,8.954,20,20,20s20-8.954,20-20C230,250.454,221.046,241.5,210,241.5z M260,241.5
	c-11.046,0-20,8.954-20,20c0,11.046,8.954,20,20,20c11.046,0,20-8.954,20-20C280,250.454,271.046,241.5,260,241.5z M310,281.5
	c11.046,0,20-8.954,20-20c0-11.046-8.954-20-20-20s-20,8.954-20,20C290,272.546,298.954,281.5,310,281.5z M160,371.5
	c-11.046,0-20,8.954-20,20s8.954,20,20,20s20-8.954,20-20S171.046,371.5,160,371.5z M210,371.5c-11.046,0-20,8.954-20,20
	s8.954,20,20,20s20-8.954,20-20S221.046,371.5,210,371.5z M260,371.5c-11.046,0-20,8.954-20,20s8.954,20,20,20
	c11.046,0,20-8.954,20-20S271.046,371.5,260,371.5z M310,371.5c-11.046,0-20,8.954-20,20s8.954,20,20,20s20-8.954,20-20
	S321.046,371.5,310,371.5z"/>
<g>
	<path style="fill:#00D3B4;" d="M170,261.5c0,5.523-4.477,10-10,10s-10-4.477-10-10c0-5.523,4.477-10,10-10S170,255.977,170,261.5z
		 M260,401.5c5.523,0,10-4.477,10-10s-4.477-10-10-10c-5.523,0-10,4.477-10,10S254.477,401.5,260,401.5z M324,440h-82
		c-1.105,0-2,0.895-2,2v21c0,1.105,0.895,2,2,2h82c1.105,0,2-0.895,2-2v-21C326,440.895,325.105,440,324,440z"/>
	<path style="fill:#00D3B4;" d="M358,0c67.379,0,122,54.621,122,122s-54.621,122-122,122s-122-54.621-122-122S290.621,0,358,0z"/>
</g>
<path style="fill:#00B7A0;" d="M315.879,236.531C269.256,219.379,236,174.574,236,122s33.256-97.379,79.879-114.531
	C285.637,33.312,266,74.984,266,122S285.636,210.688,315.879,236.531z"/>
<path style="fill:#FFF5F5;" d="M337.761,65.68c-1.433-3.44-4.794-5.68-8.521-5.68h-7.692c-3.726,0-7.087,2.241-8.521,5.68
	L270.72,167.219c-2.533,6.08,1.934,12.781,8.521,12.781c3.727,0,7.087-2.241,8.521-5.68L297.894,150h55l10.133,24.32
	c1.433,3.44,4.794,5.68,8.521,5.68l0,0c6.587,0,11.054-6.701,8.521-12.781L337.761,65.68z M306.228,130l19.167-46l19.167,46H306.228
	z M450,120c0,5.523-4.477,10-10,10h-15v15c0,5.523-4.477,10-10,10s-10-4.477-10-10v-15h-15c-5.523,0-10-4.477-10-10s4.477-10,10-10
	h15V95c0-5.523,4.477-10,10-10s10,4.477,10,10v15h15C445.523,110,450,114.477,450,120z"/>
<g>
</g>
<g>
</g>
<g>
</g>
<g>
</g>
<g>
</g>
<g>
</g>
<g>
</g>
<g>
</g>
<g>
</g>
<g>
</g>
<g>
</g>
<g>
</g>
<g>
</g>
<g>
</g>
<g>
</g>
</svg>
