<svg height="512pt" viewBox="0 -29 512.00077 512" width="512pt" xmlns="http://www.w3.org/2000/svg"><path d="m0 66.285156 212.339844 29.472656 211.59375-29.472656v-47.941406c0-10.085938-8.292969-18.34375-18.382813-18.34375h-387.195312c-10.09375 0-18.355469 8.257812-18.355469 18.34375zm0 0" fill="#e6e6e6" fill-rule="evenodd"/><path d="m290.960938 66.285156h-290.960938v368.34375c0 10.113282 8.261719 18.371094 18.355469 18.371094h387.195312c10.089844 0 18.382813-8.257812 18.382813-18.371094v-368.34375zm0 0" fill="#8ebfe8" fill-rule="evenodd"/><path d="m385.449219 66.285156h38.484375v-47.941406c0-6.113281-3.0625-11.570312-7.691406-14.914062-3.03125-2.144532-6.71875-3.429688-10.695313-3.429688h-38.480469c10.121094 0 18.382813 8.257812 18.382813 18.34375zm0 0" fill="#c4cccf" fill-rule="evenodd"/><path d="m416.242188 66.285156h-30.792969v368.34375c0 10.113282-8.261719 18.371094-18.382813 18.371094h38.484375c3.972657 0 7.660157-1.285156 10.691407-3.457031 4.632812-3.34375 7.691406-8.800781 7.691406-14.914063v-368.34375zm0 0" fill="#519ad6" fill-rule="evenodd"/><path d="m367.78125 38.867188h-.199219c-4.300781 0-7.785156-3.484376-7.785156-7.78125 0-4.296876 3.484375-7.78125 7.785156-7.78125h.199219c4.300781 0 7.789062 3.484374 7.789062 7.78125 0 4.296874-3.488281 7.78125-7.789062 7.78125zm0 0" fill="#8bc34a"/><path d="m334.730469 38.867188h-.199219c-4.300781 0-7.785156-3.484376-7.785156-7.78125 0-4.296876 3.484375-7.78125 7.785156-7.78125h.199219c4.300781 0 7.789062 3.484374 7.789062 7.78125 0 4.296874-3.488281 7.78125-7.789062 7.78125zm0 0" fill="#ffd54f"/><path d="m301.683594 39.011719h-.203125c-4.300781 0-7.785157-3.484375-7.785157-7.78125s3.484376-7.78125 7.785157-7.78125h.203125c4.300781 0 7.785156 3.484375 7.785156 7.78125s-3.488281 7.78125-7.785156 7.78125zm0 0" fill="#f0417b"/><path d="m228.519531 39.011719h-168.625c-4.300781 0-7.785156-3.484375-7.785156-7.78125s3.484375-7.78125 7.785156-7.78125h168.625c4.300781 0 7.789063 3.484375 7.789063 7.78125s-3.488282 7.78125-7.789063 7.78125zm0 0" fill="#35505c"/><path d="m68.328125 156.167969h15.28125c1.660156 0 3.128906.609375 4.402344 1.828125.554687.550781.996093 1.1875 1.328125 1.90625.332031.722656.5 1.523437.5 2.40625 0 1.660156-.597656 3.070312-1.785156 4.234375-1.195313 1.164062-2.671876 1.742187-4.445313 1.742187h-21.925781c-1.9375 0-3.570313-.648437-4.898438-1.949218-1.332031-1.300782-1.996094-2.917969-1.996094-4.855469v-46.148438c0-1.824219.664063-3.429687 1.996094-4.8125 1.328125-1.382812 2.933594-2.074219 4.816406-2.074219h21.59375c1.660157 0 3.074219.59375 4.234376 1.78125 1.164062 1.191407 1.746093 2.617188 1.746093 4.277344 0 1.605469-.582031 3.070313-1.746093 4.398438-1.21875 1.214844-2.628907 1.824218-4.234376 1.824218h-14.949218v11.453126h13.453125c1.773437 0 3.265625.613281 4.484375 1.828124 1.21875 1.21875 1.828125 2.628907 1.828125 4.234376 0 1.660156-.597657 3.085937-1.785157 4.273437-1.191406 1.191406-2.699218 1.785156-4.527343 1.785156h-13.371094zm0 0" fill="#35505c"/><path d="m126.011719 147.371094-13.125 18.34375c-1.492188 2.15625-3.351563 3.234375-5.5625 3.234375-1.828125 0-3.433594-.636719-4.816407-1.90625-1.386718-1.273438-2.078124-2.796875-2.078124-4.566407 0-1.660156.5-3.152343 1.496093-4.480468l16.277344-21.832032-13.289063-17.511718c-.941406-1.214844-1.410156-2.65625-1.410156-4.316406 0-1.769532.664063-3.320313 1.992188-4.648438s2.933594-1.992188 4.816406-1.992188c2.214844 0 4.152344 1.164063 5.816406 3.488282l9.882813 14.109375 9.882812-14.109375c1.605469-2.324219 3.542969-3.488282 5.8125-3.488282 1.773438 0 3.351563.652344 4.734375 1.949219 1.382813 1.304688 2.074219 2.863281 2.074219 4.691407 0 1.4375-.496094 2.878906-1.492187 4.316406l-13.207032 17.511718 16.195313 21.828126c.996093 1.328124 1.496093 2.824218 1.496093 4.484374 0 1.714844-.664062 3.234376-1.992187 4.5625-.664063.609376-1.386719 1.082032-2.160156 1.414063-.777344.332031-1.660157.496094-2.660157.496094-2.101562 0-3.984374-1.078125-5.644531-3.234375zm0 0" fill="#35505c"/><path d="m175.738281 157-2.242187 7.550781c-.941406 3.101563-3.101563 4.648438-6.480469 4.648438-1.882813 0-3.460937-.636719-4.734375-1.910157-1.273438-1.269531-1.910156-2.820312-1.910156-4.648437 0-1.214844.195312-2.320313.582031-3.316406l16.527344-44.15625c1.828125-4.980469 5.09375-7.472657 9.800781-7.472657 4.652344 0 7.890625 2.492188 9.71875 7.472657l16.277344 44.238281c.441406 1.21875.664062 2.546875.664062 3.984375s-.664062 2.792969-1.992187 4.066406c-1.273438 1.105469-2.824219 1.660157-4.652344 1.660157-3.042969 0-5.09375-1.523438-6.144531-4.566407l-2.410156-7.550781zm11.542969-35.359375-7.722656 23.238281 15.117187.082032zm0 0" fill="#35505c"/><path d="m244.355469 129.691406-4.734375 32.949219c-.609375 4.265625-2.851563 6.394531-6.726563 6.394531-1.992187 0-3.625-.664062-4.898437-1.992187-1.273438-1.328125-1.910156-2.988281-1.910156-4.984375 0-.605469.054687-1.050782.167968-1.328125l7.722656-45.8125c.332032-1.992188 1.355469-3.679688 3.074219-5.066407 1.714844-1.378906 3.679688-2.074218 5.894531-2.074218 4.484376 0 7.445313 2.242187 8.886719 6.726562l9.386719 31.621094 9.550781-31.621094c1.328125-4.484375 4.289063-6.726562 8.886719-6.726562 2.160156 0 4.082031.679687 5.773438 2.035156 1.6875 1.355469 2.722656 3.058594 3.113281 5.105469l7.722656 45.8125.167969 1.328125c0 2.050781-.636719 3.722656-1.910156 5.023437-1.277344 1.300781-2.878907 1.949219-4.816407 1.949219-3.878906 0-6.148437-2.128906-6.8125-6.390625l-4.816406-32.949219-9.964844 33.945313c-.609375 2.046875-1.398437 3.457031-2.367187 4.234375-.96875.773437-2.480469 1.160156-4.527344 1.160156-3.433594 0-5.730469-1.796875-6.894531-5.394531zm0 0" fill="#35505c"/><path d="m225.433594 205.867188h-162.449219c-4.300781 0-7.789063-3.484376-7.789063-7.78125 0-4.296876 3.488282-7.78125 7.789063-7.78125h162.449219c4.300781 0 7.785156 3.484374 7.785156 7.78125 0 4.296874-3.484375 7.78125-7.785156 7.78125zm0 0" fill="#35505c"/><path d="m225.433594 250.925781h-162.449219c-4.300781 0-7.789063-3.484375-7.789063-7.78125 0-4.300781 3.488282-7.78125 7.789063-7.78125h162.449219c4.300781 0 7.785156 3.484375 7.785156 7.78125s-3.484375 7.78125-7.785156 7.78125zm0 0" fill="#35505c"/><path d="m73.417969 284.886719h277.09375c5.71875 0 10.410156 4.6875 10.410156 10.398437v101c0 5.714844-4.691406 10.402344-10.410156 10.402344h-277.09375c-5.746094 0-10.433594-4.6875-10.433594-10.402344v-101c0-5.714844 4.6875-10.398437 10.433594-10.398437zm0 0" fill="#eceff1" fill-rule="evenodd"/><path d="m212.339844 333.808594h-119.992188c-4.300781 0-7.789062-3.480469-7.789062-7.777344 0-4.300781 3.488281-7.78125 7.789062-7.78125h119.992188c4.300781 0 7.785156 3.480469 7.785156 7.78125 0 4.296875-3.484375 7.777344-7.785156 7.777344zm0 0" fill="#35505c"/><path d="m260.976562 370.324219h-168.628906c-4.300781 0-7.789062-3.484375-7.789062-7.78125s3.488281-7.78125 7.789062-7.78125h168.628906c4.300782 0 7.785157 3.484375 7.785157 7.78125s-3.484375 7.78125-7.785157 7.78125zm0 0" fill="#35505c"/><g fill-rule="evenodd"><path d="m262.511719 338.230469-6.773438 15.429687c-4.917969 11.457032 5.117188 22.398438 17.609375 16.742188l15.125-7.488282-3.460937-22.054687zm0 0" fill="#546e7a"/><path d="m325.78125 344.457031-11.976562-31.226562-34.59375-13.117188-16.699219 38.117188 25.960937 24.683593zm0 0" fill="#ffd54f"/><path d="m306.429688 326.03125-28.507813 29.941406 10.550781 6.941406 37.308594-18.457031zm0 0" fill="#e6a235"/><path d="m279.4375 354.371094-11.207031 6.800781c-8.261719 2.828125-10.777344 1.828125-13.433594 1.371094 1.628906 7.285156 9.433594 11.96875 18.554687 7.855469l15.121094-7.484376zm0 0" fill="#35505c"/><path d="m434.082031 137.570312-146.210937 153.460938-8.660156 9.082031 46.570312 44.34375 49.546875-52 119.566406-125.484375h.027344l-10.691406-33.800781-35.910157-10.542969zm0 0" fill="#8bc34a"/><path d="m306.429688 326.03125 19.351562 18.425781 49.546875-52 119.566406-125.484375h.027344l-19.386719-18.429687-119.5625 125.488281zm0 0" fill="#689f38"/><path d="m502.070312 112.855469c-12.808593-12.199219-33.28125-11.710938-45.488281 1.089843l-8.261719 8.683594 46.601563 44.34375 8.234375-8.65625c12.09375-12.6875 11.835938-33.144531-1.085938-45.460937zm0 0" fill="#f0417b"/><path d="m490.375 105.742188c4.175781 10.542968 2.574219 22.859374-4.714844 32-.574218.746093-1.203125 1.457031-1.859375 2.144531l-8.261719 8.65625 19.382813 18.429687 8.234375-8.65625c12.09375-12.6875 11.835938-33.144531-1.085938-45.457031-3.460937-3.289063-7.464843-5.660156-11.695312-7.117187zm0 0" fill="#a3316e"/></g></svg>