<svg id="Capa_1" enable-background="new 0 0 512 512" height="512" viewBox="0 0 512 512" width="512" xmlns="http://www.w3.org/2000/svg" xmlns:xlink="http://www.w3.org/1999/xlink"><linearGradient id="SVGID_1_" gradientUnits="userSpaceOnUse" x1="74.98" x2="437.019" y1="437.019" y2="74.98"><stop offset="0" stop-color="#ff4747"/><stop offset="1" stop-color="#fff200"/></linearGradient><radialGradient id="SVGID_2_" cx="257.013" cy="280.338" gradientUnits="userSpaceOnUse" r="256"><stop offset="0" stop-color="#ff4747"/><stop offset="1" stop-color="#fffa78" stop-opacity="0"/></radialGradient><linearGradient id="lg1"><stop offset="0" stop-color="#ffcb00"/><stop offset="1" stop-color="#fffa78"/></linearGradient><linearGradient id="SVGID_3_" gradientUnits="userSpaceOnUse" x1="66.162" x2="448.122" xlink:href="#lg1" y1="248.736" y2="-133.224"/><linearGradient id="SVGID_4_" gradientUnits="userSpaceOnUse" x1="87.297" x2="463.106" xlink:href="#lg1" y1="388.323" y2="12.514"/><linearGradient id="SVGID_5_" gradientUnits="userSpaceOnUse" x1="255.878" x2="255.878" y1="258.63" y2="53.528"><stop offset="0" stop-color="#ffb11d" stop-opacity=".5"/><stop offset=".3024" stop-color="#ffd044" stop-opacity=".349"/><stop offset=".58" stop-color="#ffe761" stop-opacity=".21"/><stop offset=".8216" stop-color="#fff572" stop-opacity=".089"/><stop offset="1" stop-color="#fffa78" stop-opacity="0"/></linearGradient><linearGradient id="lg2"><stop offset="0" stop-color="#fffa78"/><stop offset="1" stop-color="#fff"/></linearGradient><linearGradient id="SVGID_6_" gradientUnits="userSpaceOnUse" x1="61.724" x2="299.378" xlink:href="#lg2" y1="372.49" y2="134.836"/><linearGradient id="SVGID_7_" gradientUnits="userSpaceOnUse" x1="256" x2="256" y1="204.069" y2="121.243"><stop offset="0" stop-color="#ffcb00"/><stop offset=".0044" stop-color="#ffcc03" stop-opacity=".996"/><stop offset=".0648" stop-color="#ffd822" stop-opacity=".935"/><stop offset=".1318" stop-color="#ffe33d" stop-opacity=".868"/><stop offset=".2089" stop-color="#ffeb53" stop-opacity=".791"/><stop offset=".2989" stop-color="#fff264" stop-opacity=".701"/><stop offset=".4102" stop-color="#fff76f" stop-opacity=".59"/><stop offset=".5664" stop-color="#fff976" stop-opacity=".434"/><stop offset="1" stop-color="#fffa78" stop-opacity="0"/></linearGradient><linearGradient id="SVGID_8_" gradientUnits="userSpaceOnUse" x1="-13.022" x2="218.024" xlink:href="#lg2" y1="439.798" y2="208.751"/><linearGradient id="SVGID_9_" gradientUnits="userSpaceOnUse" x1="203.288" x2="203.288" y1="228.595" y2="160.514"><stop offset="0" stop-color="#ffcb00"/><stop offset=".0647" stop-color="#ffd71e" stop-opacity=".935"/><stop offset=".1406" stop-color="#ffe23a" stop-opacity=".859"/><stop offset=".2268" stop-color="#ffeb51" stop-opacity=".773"/><stop offset=".3259" stop-color="#fff263" stop-opacity=".674"/><stop offset=".4458" stop-color="#fff66f" stop-opacity=".554"/><stop offset=".6083" stop-color="#fff976" stop-opacity=".392"/><stop offset="1" stop-color="#fffa78" stop-opacity="0"/></linearGradient><linearGradient id="SVGID_10_" gradientUnits="userSpaceOnUse" x1="75.843" x2="386.002" y1="370.824" y2="60.665"><stop offset="0" stop-color="#ffcb00"/><stop offset=".928" stop-color="#fffa78"/></linearGradient><linearGradient id="SVGID_11_" gradientUnits="userSpaceOnUse" x1=".451" x2="471.607" xlink:href="#lg1" y1="603.257" y2="132.102"/><linearGradient id="SVGID_12_" gradientUnits="userSpaceOnUse" x1="-184.066" x2="417.827" xlink:href="#lg1" y1="802.552" y2="200.659"/><g><circle cx="256" cy="256" fill="url(#SVGID_1_)" r="256"/><circle cx="256" cy="256" fill="url(#SVGID_2_)" r="256"/><path d="m112.5 96.248c-16.536.649-30.727 14.712-31.487 31.252-1.997 45-2.945 90-2.844 135 30.749.056 61.498.098 92.246.125-.059-56.056.635-112.113 2.084-168.17-19.999.44-39.999 1.038-59.999 1.793z" fill="url(#SVGID_3_)"/><path d="m400.729 126.485c-43.798-1.33-87.597-2.057-131.395-2.179-8.497-.025-16.607-3.652-22.308-10.011-3.206-3.575-6.401-7.147-9.587-10.713-5.668-6.346-13.665-9.917-22.086-9.827-14.284.153-28.569.386-42.853.7-16.537.378-30.466 14.422-30.972 31.207-1.306 45.643-1.926 91.287-1.86 136.931 98.054.117 196.109.086 294.163-.093.079-35-.477-70-1.668-105-.584-16.54-14.75-30.484-31.434-31.015z" fill="url(#SVGID_4_)"/><path d="m400.729 126.485c-43.798-1.33-87.597-2.057-131.395-2.179-8.497-.025-16.607-3.652-22.308-10.011-3.206-3.575-6.402-7.147-9.587-10.713-5.668-6.346-13.665-9.917-22.086-9.827-34.284.367-68.569 1.198-102.853 2.493-16.536.649-30.727 14.712-31.487 31.252-1.775 40-2.721 80-2.838 120 113.425-.271 226.851-.283 340.276-.035 5.098-10.03 10.146-20.02 15.13-29.965-.266-20-.739-40-1.419-60-.582-16.54-14.749-30.484-31.433-31.015z" fill="url(#SVGID_5_)"/><path d="m110.095 164.281c-.26 10.079-.477 20.158-.651 30.237 97.704-1.391 195.408-1.391 293.113 0-.174-10.079-.391-20.158-.651-30.237-.109-4.173-3.614-7.637-7.818-7.731-92.058-2.017-184.116-2.017-276.174 0-4.205.094-7.711 3.558-7.819 7.731z" fill="url(#SVGID_6_)"/><path d="m110.095 164.281c-.26 10.079-.477 20.158-.651 30.237 97.704-1.391 195.408-1.391 293.113 0-.174-10.079-.391-20.158-.651-30.237-.109-4.173-3.614-7.637-7.818-7.731-92.058-2.017-184.116-2.017-276.174 0-4.205.094-7.711 3.558-7.819 7.731z" fill="url(#SVGID_7_)"/><path d="m109.444 194.518c-.392 22.678-.567 45.355-.525 68.033 60.352.091 120.704.126 181.056.105.011-25.602-.04-51.204-.153-76.806-57.529-.213-115.058.117-172.586.99-4.226.066-7.72 3.505-7.792 7.678z" fill="url(#SVGID_8_)"/><path d="m109.444 194.518c-.392 22.678-.567 45.355-.525 68.033 62.914.095 125.829.129 188.743.102.013-25.591-.05-51.182-.188-76.772-60.08-.272-120.159.047-180.239.958-4.225.067-7.719 3.506-7.791 7.679z" fill="url(#SVGID_9_)"/><path d="m109.124 217.196c-16.949.177-30.898 13.763-30.949 30.304-.144 49 .956 98 3.299 147 .539 11.033 9.994 20.404 21.026 20.861 20 .808 40 1.458 60 1.951 1.396-66.75 4.204-133.605 8.036-200.551-20.471.106-40.941.251-61.412.435z" fill="url(#SVGID_10_)"/><path d="m297.474 185.882c-8.594-.04-16.776 3.564-22.569 9.924-3.256 3.576-6.517 7.153-9.782 10.733-5.807 6.367-14.034 9.997-22.655 10.004-23.977.02-47.955.092-71.932.217-16.949.105-30.83 13.831-30.865 30.618-.094 49.701.625 99.401 2.158 149.102.358 11.196 9.639 20.552 20.671 20.831 82.333 2.027 164.667 1.376 247-1.951 11.031-.457 20.486-9.829 21.026-20.861 1.18-24.667 2.044-49.334 2.594-74.002-44.221-43.508-90.216-89.03-135.646-134.615z" fill="url(#SVGID_11_)"/><path d="m433.119 320.498c.765-34.333.919-68.666.462-102.998-.228-16.541-14.274-30.246-31.164-30.541-34.981-.56-69.963-.919-104.944-1.078.476 75.224 60.98 136.188 135.646 134.617z" fill="url(#SVGID_12_)"/></g></svg>