<svg id="Capa_1" enable-background="new 0 0 512 512" height="512" viewBox="0 0 512 512" width="512" xmlns="http://www.w3.org/2000/svg"><g><g><path d="m446 512h-380c-24.813 0-45-20.187-45-45v-160c0-24.813 20.187-45 45-45h380c24.813 0 45 20.187 45 45v160c0 24.813-20.187 45-45 45z" fill="#e2dff4"/><path d="m446 262h-190v250h190c24.813 0 45-20.187 45-45v-160c0-24.813-20.187-45-45-45z" fill="#bebcdd"/><path d="m66 292c-8.271 0-15 6.729-15 15v160c0 8.271 6.729 15 15 15h380c8.271 0 15-6.729 15-15v-160c0-8.271-6.729-15-15-15z" fill="#f4f4f6"/><path d="m446 292h-190v190h190c8.271 0 15-6.729 15-15v-160c0-8.271-6.729-15-15-15z" fill="#e2dff4"/><path d="m141.886 421.916c-.028 0-.058 0-.086 0-6.784.038-13.934.066-19.933.078v-84.994c0-8.284-6.716-15-15-15s-15 6.716-15 15v99.916c0 7.306 5.264 13.549 12.464 14.784 1.08.185 1.798.308 12.97.308 5.387 0 13.205-.028 24.667-.092 8.284-.046 14.962-6.8 14.916-15.084-.046-8.256-6.753-14.916-14.998-14.916z" fill="#6b61b1"/><path d="m191.889 322c-8.284 0-15 6.716-15 15v100c0 8.284 6.716 15 15 15s15-6.716 15-15v-100c0-8.284-6.716-15-15-15z" fill="#6b61b1"/><path d="m405.133 422h-27.136v-20h24.029c8.284 0 15-6.716 15-15s-6.716-15-15-15h-24.029v-20h27.136c8.284 0 15-6.716 15-15s-6.716-15-15-15h-42.136c-8.284 0-15 6.716-15 15v100c0 8.284 6.716 15 15 15h42.136c8.284 0 15-6.716 15-15s-6.716-15-15-15z" fill="#38336b"/><path d="m317.724 322.949c-7.864-2.614-16.352 1.645-18.964 9.506l-20.816 62.665-21.882-63.039c-2.717-7.827-11.267-11.97-19.09-9.251-7.826 2.716-11.968 11.263-9.252 19.089l34.19 98.499c.012.033.023.066.035.099 2.442 6.881 8.968 11.484 16.262 11.484h.113c7.34-.048 13.859-4.749 16.225-11.698.012-.035.023-.069.035-.104l32.65-98.286c2.612-7.862-1.644-16.353-9.506-18.964z" fill="#6b61b1"/><path d="m317.724 322.949c-7.864-2.614-16.352 1.645-18.964 9.506l-20.816 62.665-21.882-63.039c-.018-.052-.043-.1-.062-.152v91.462l5.91 17.026c.012.033.023.066.035.099 2.442 6.881 8.968 11.484 16.262 11.484h.113c7.34-.048 13.859-4.749 16.225-11.698.012-.035.023-.069.035-.104l32.65-98.286c2.612-7.861-1.644-16.352-9.506-18.963z" fill="#38336b"/></g><g><g fill="#ffb454"><path d="m271 80c-16.542 0-30-13.458-30-30s13.458-30 30-30 30 13.458 30 30-13.458 30-30 30z"/><path d="m201 80c-22.056 0-40-17.944-40-40s17.944-40 40-40 40 17.944 40 40-17.944 40-40 40z"/><path d="m385.999 230c-2.292 0-4.59-.525-6.707-1.583l-60-30c-5.082-2.542-8.292-7.735-8.292-13.417v-60c0-5.682 3.21-10.875 8.292-13.417l60-30c4.649-2.325 10.171-2.076 14.594.657s7.114 7.561 7.114 12.76v120c0 5.199-2.691 10.027-7.114 12.76-2.408 1.489-5.144 2.24-7.887 2.24z"/></g><path d="m311 155v30c0 5.682 3.21 10.875 8.292 13.417l60 30c2.117 1.059 4.415 1.583 6.707 1.583 2.743 0 5.479-.751 7.887-2.24 4.423-2.733 7.114-7.561 7.114-12.76v-60z" fill="#ff7038"/><path d="m306 230h-160c-19.299 0-35-15.701-35-35v-80c0-19.299 15.701-35 35-35h160c19.299 0 35 15.701 35 35v80c0 19.299-15.701 35-35 35z" fill="#ffe278"/><path d="m111 155v40c0 19.299 15.701 35 35 35h160c19.299 0 35-15.701 35-35v-40z" fill="#ffb454"/></g></g></svg>