<svg height="512" viewBox="0 0 60 60" width="512" xmlns="http://www.w3.org/2000/svg"><g id="Page-1" fill="none" fill-rule="evenodd"><g id="008---Live-Chat" fill-rule="nonzero" transform="translate(-1)"><g id="Icons" transform="translate(1 1)"><path id="Shape" d="m53 42v3.82c.0452102 1.152631-.8477494 2.1259569-2 2.18h-48c-1.15225064-.0540431-2.04521019-1.027369-2-2.18v-3.82z" fill="#7f8e94"/><path id="Shape" d="m50 42v3.82c.0452102 1.152631-.8477494 2.1259569-2 2.18h3c1.1522506-.0540431 2.0452102-1.027369 2-2.18v-3.82z" fill="#545c60"/><path id="Shape" d="m53 20.01v21.99h-52v-35.82c-.04521019-1.152631.84774936-2.12595691 2-2.18h28v14.01c.0032948 1.1032019.8967981 1.9967052 2 2h2v4.88c-.0006853.4127037.228265.7915224.5939748.9827844.3657098.1912621.8074504.163207 1.1460252-.0727844l8.26-5.79z" fill="#02a9f4"/><path id="Rectangle-path" d="m50 20.01h3v21.99h-3z" fill="#0377bc"/><path id="Shape" d="m35 48 3 6h-11-11l3-6z" fill="#607d8b"/><path id="Shape" d="m35 48h-3l3 6h3z" fill="#37474f"/><rect id="Rectangle-path" fill="#7f8e94" height="4" rx="2" width="34" x="10" y="54"/><path id="Shape" d="m42 54h-3c1.1045695 0 2 .8954305 2 2s-.8954305 2-2 2h3c1.1045695 0 2-.8954305 2-2s-.8954305-2-2-2z" fill="#545c60"/><path id="Shape" d="m59 2v16.01c-.0032948 1.1032019-.8967981 1.9967052-2 2h-12l-8.26 5.79c-.3385748.2359914-.7803154.2640465-1.1460252.0727844-.3657098-.191262-.5946601-.5700807-.5939748-.9827844v-4.88h-2c-1.1032019-.0032948-1.9967052-.8967981-2-2v-16.01c.0032948-1.10320187.8967981-1.9967052 2-2h24c1.1032019.0032948 1.9967052.89679813 2 2z" fill="#e91e63"/><path id="Shape" d="m35 24.914c.0081779.4076726.2400031.7777772.6032344.9630524.3632312.1852751.7989417.1556636 1.1337656-.0770524l8.263-5.79h-3z" fill="#ad1457"/><path id="Shape" d="m57 0h-3c1.1032019.0032948 1.9967052.89679813 2 2v16.01c-.0032948 1.1032019-.8967981 1.9967052-2 2h3c1.1032019-.0032948 1.9967052-.8967981 2-2v-16.01c-.0032948-1.10320187-.8967981-1.9967052-2-2z" fill="#ad1457"/><path id="Shape" d="m27.27 21.32c.0018664.6317856-.2482834 1.2382329-.6950253 1.6849747-.4467418.4467419-1.0531891.6968917-1.6849747.6950253-.1509707.0020246-.3017534-.0113783-.45-.04-.7988326 2.50342-2.5722488 4.5796146-4.92 5.76-.0312108.0206111-.0647847.037398-.1.05-1.5708958.6996181-3.3634909.7068755-4.94.02-.01-.01-.03-.01-.04-.02-2.3975048-1.1686139-4.2116799-3.2682867-5.02-5.81-.14487218.0286288-.29234021.042035-.44.04-1.31719913 0-2.385-1.0678009-2.385-2.385s1.06780087-2.385 2.385-2.385v-3.26c-2.88-2.43-1.98-7.67-1.98-7.67 2.39 4.77 12.32-.2 16.3 2.18s1.59 8.75 1.59 8.75c.6328696.0002613 1.2395969.2524682 1.6861642.7009118.4465672.4484437.6962281 1.0562231.6938358 1.6890882z" fill="#ffe0b2"/><path id="Shape" d="m21 34c0 2.209139-1.790861 4-4 4s-4-1.790861-4-4c1.4183697-1.0238931 2.0159145-2.8447897 1.48-4.51 1.5765091.6868755 3.3691042.6796181 4.94-.02.0352153-.012602.0687892-.0293889.1-.05-.5378935 1.6860779.0571583 3.5275221 1.48 4.58z" fill="#dfc49c"/><path id="Shape" d="m29 39.57.0000023 2.43h-24.00000455l.00000225-2.43c-.00132824-1.4776626.58508282-2.8951858 1.62994851-3.9400515 1.0448657-1.0448657 2.46238885-1.6312767 3.94005149-1.6299485h2.43c0 2.209139 1.790861 4 4 4s4-1.790861 4-4h2.43c1.4776626-.0013282 2.8951858.5850828 3.9400515 1.6299485s1.6312767 2.4623889 1.6299485 3.9400515z" fill="#ffdc00"/><path id="Shape" d="m25.52 16.21c-1.43-2.43-6.04-2.14-9.15-.1-2.259224 1.6131647-5.3381541 1.4298454-7.39-.44-2.88-2.43-1.98-7.67-1.98-7.67 2.39 4.77 12.32-.2 16.3 2.18 2.26 1.36 2.46 4 2.22 6.03z" fill="#a0522d"/></g><g id="Icons_copy" fill="#000"><path id="Shape" d="m56 8c.5522847 0 1-.44771525 1-1s-.4477153-1-1-1h-1c-1.1045695 0-2 .8954305-2 2v6c0 1.1045695.8954305 2 2 2h1c.5522847 0 1-.4477153 1-1s-.4477153-1-1-1h-1v-2c.5522847 0 1-.4477153 1-1s-.4477153-1-1-1v-2z"/><path id="Shape" d="m38 14h-1v-7c0-.55228475-.4477153-1-1-1s-1 .44771525-1 1v7c0 1.1045695.8954305 2 2 2h1c.5522847 0 1-.4477153 1-1s-.4477153-1-1-1z"/><path id="Shape" d="m50.242 6.03c-.5353845-.13355582-1.0777678.19178466-1.212.727l-1.03 4.12-1.03-4.12c-.1373346-.53205934-.6782442-.85362876-1.2112708-.72009737-.5330265.13353139-.8584506.67213082-.7287292 1.20609737l2 8c.1114998.4448894.5113511.7568951.97.7568951s.8585002-.3120057.97-.7568951l2-8c.0644087-.25739753.0238814-.52984064-.1126593-.75734587-.1365406-.22750522-.3578997-.39141954-.6153407-.45565413z"/><path id="Shape" d="m42 6c-.5522847 0-1 .44771525-1 1v8c0 .5522847.4477153 1 1 1s1-.4477153 1-1v-8c0-.55228475-.4477153-1-1-1z"/><path id="Shape" d="m58 0h-24c-1.6548028.0049422-2.9950578 1.3451972-3 3v1h-27c-1.7044406.05441939-3.04487651 1.47528146-3 3.18v39.64c-.04487651 1.7047185 1.2955594 3.1255806 3 3.18h14.38l-2 4h-3.38c-1.6568542 0-3 1.3431458-3 3s1.3431458 3 3 3h30c1.6568542 0 3-1.3431458 3-3s-1.3431458-3-3-3h-3.38l-2-4h14.38c1.7044406-.0544194 3.0448765-1.4752815 3-3.18v-24.81h3c1.6548028-.0049422 2.9950578-1.3451972 3-3v-16.01c-.0049422-1.6548028-1.3451972-2.9950578-3-3zm-15 56c.5522847 0 1 .4477153 1 1s-.4477153 1-1 1h-30c-.5522847 0-1-.4477153-1-1s.4477153-1 1-1zm-24.38-2 2-4h14.76l2 4zm34.38-12h-5c-.5522847 0-1 .4477153-1 1s.4477153 1 1 1h5v2.82c.0369584.5978301-.4042043 1.1184021-1 1.18h-48c-.59579567-.0615979-1.0369584-.5821699-1-1.18v-2.82h41c.5522847 0 1-.4477153 1-1s-.4477153-1-1-1h-13v-1.43c-.0060557-3.6259995-2.9440005-6.5639443-6.57-6.57h-2.21c-.782471-.7286845-1.1275236-1.8131353-.91-2.86 2.1786705-1.2140633 3.8760975-3.1373433 4.81-5.45 1.5714685-.1078188 2.8605877-1.2859448 3.1090758-2.8413842.248488-1.5554394-.609415-3.0765613-2.0690758-3.6686158.55-2.12 1.23-6.71-2.35-8.86-2-1.19-4.9-.85-7.97-.49-3.55.42-6.9.82-7.95-1.28-.17050323-.33531252-.5138358-.54748433-.89-.55-.05020795-.00165198-.10045566.00169786-.15.01-.42654853.0655691-.76417315.39515504-.84.82-.03.23-.89 5.42 1.97 8.28v1.97c-1.5577926.4795633-2.55238446 2.0014811-2.36620514 3.6207513.18617933 1.6192702 1.50022355 2.8757472 3.12620514 2.9892487.9339025 2.3126567 2.6313295 4.2359367 4.81 5.45.2229406 1.0569199-.1445184 2.1516414-.96 2.86h-2.02c-3.62599948.0060557-6.56394427 2.9440005-6.57 6.57v1.43h-2v-34.82c-.0369584-.59783012.40420433-1.11840214 1-1.18h27v13.01c.0049422 1.6548028 1.3451972 2.9950578 3 3h1v3.88c-.0048488.7862038.4317264 1.5086777 1.13 1.87.302978.1566745.6389114.2389439.98.24.4293754-.0014359.8480634-.1340205 1.2-.38l8.01-5.61h6.68zm-41.11-25.4c-.4605814-.1465588-.8884476-.3808665-1.26-.69l-.01-.01c-1.17659423-1.223798-1.80473609-2.8735729-1.74-4.57 2.12 1.21 5.3.83 8.2.49 2.6-.31 5.29-.63 6.7.22 3.21 1.93 1.19 7.48 1.17 7.54-.1124082.3075438-.067943.6505671.1191646.9192854.1871075.2687183.4933951.4294357.8208354.4307146.3673256.0013237.7190804.1485139.9778811.40919s.4034474.6134844.4021189.98081c.0026874.366816-.1418419.719388-.4012269.9787731-.2593851.259385-.6119571.4039143-.9787731.4012269-.0805451.0048678-.1613716-.0018677-.24-.02-.5012267-.1069148-1.0021501.1824116-1.16.67-.93 2.81-3.48 5.65-6.56 5.65s-5.63-2.84-6.56-5.65c-.1356831-.4101082-.5180349-.6878164-.95-.69-.0703842.0017036-.1405596.0083869-.21.02-.075619.0156502-.1528147.0223629-.23.02-.76491438 0-1.385-.6200856-1.385-1.385s.62008562-1.385 1.385-1.385c.5522847 0 1-.4477153 1-1v-1.53c.09.04.18.07.27.1.5246705.1767311 1.0932688-.1053295 1.27-.63.1767311-.5246705-.1053295-1.0932689-.63-1.27zm4.72 15.27c.4350628.0838558.8769373.1273738 1.32.13.4463718-.0026515.8915633-.0461664 1.33-.13.0041352 1.4077461.6211049 2.7439053 1.69 3.66-.2564708 1.4572001-1.5404708 2.5074711-3.0195921 2.4699299-1.4791214-.0375411-2.7081893-1.1515956-2.8904079-2.6199299.99446-.896565 1.5645351-2.171064 1.57-3.51zm1.39 8.13c2.3751008-.0029983 4.4215673-1.6735832 4.9-4h1.53c2.522799.0027557 4.5672443 2.047201 4.57 4.57v1.43h-3v-1c0-.5522847-.4477153-1-1-1s-1 .4477153-1 1v1h-12v-1c0-.5522847-.4477153-1-1-1s-1 .4477153-1 1v1h-3v-1.43c.00275565-2.522799 2.047201-4.5672443 4.57-4.57h1.53c.4784327 2.3264168 2.5248992 3.9970017 4.9 4zm41-20.99c0 .5522847-.4477153 1-1 1h-3.95c-.02 0-.03-.01-.05-.01s-.03.01-.05.01h-7.95l-4-.01c-.5522847 0-1 .4477153-1 1s.4477153 1 1 1h.84l-5.67 3.98c-.0330538.0241121-.0769639.0272645-.1131231.0081214s-.0582367-.0572301-.0568769-.0981214v-3.89h1c.5522847 0 1-.4477153 1-1s-.4477153-1-1-1l-2 .01h-2c-.5522847 0-1-.4477153-1-1v-16.01c0-.55228475.4477153-1 1-1h24c.5522847 0 1 .44771525 1 1z"/></g></g></g></svg>