<svg height="512" viewBox="0 0 58 58" width="512" xmlns="http://www.w3.org/2000/svg"><g id="Page-1" fill="none" fill-rule="evenodd"><g id="008---Live-Chat" fill-rule="nonzero" transform="translate(-1)"><path id="Shape" d="m53 20v25.82c.0452102 1.152631-.8477494 2.1259569-2 2.18h-48c-1.15225064-.0540431-2.04521019-1.027369-2-2.18v-39.64c-.04521019-1.152631.84774936-2.12595691 2-2.18h28z" fill="#9fc9d3"/><path id="Shape" d="m53 20v25.82c.0452102 1.152631-.8477494 2.1259569-2 2.18h-48c-1.15225064-.0540431-2.04521019-1.027369-2-2.18v-2.14c24.9-6.31 36.03-20.36 41-31.68z" fill="#84b5cb"/><path id="Shape" d="m35 48 3 6-11 2-11-2 3-6 8.212-2z" fill="#2980ba"/><rect id="Rectangle-path" fill="#3b97d3" height="4" rx="2" width="34" x="10" y="54"/><path id="Shape" d="m59 2v16.01c-.0032948 1.1032019-.8967981 1.9967052-2 2h-12l-8.26 5.79c-.3385748.2359914-.7803154.2640465-1.1460252.0727844-.3657098-.191262-.5946601-.5700807-.5939748-.9827844v-4.88h-2c-1.1032019-.0032948-1.9967052-.8967981-2-2v-16.01c.0032948-1.10320187.8967981-1.9967052 2-2h24c1.1032019.0032948 1.9967052.89679813 2 2z" fill="#f0c419"/><path id="Shape" d="m25.51 16.25c-.99-2.03-4.9-2.47-7.84-.58s-6.17 2.05-8.69 0c-2.88-2.43-1.98-7.67-1.98-7.67 2.39 4.77 12.32-.2 16.3 2.18 2.27 1.37 2.46 4.04 2.21 6.07z" fill="#cb8252"/><path id="Shape" d="m27.27 21.32c.0018664.6317856-.2482834 1.2382329-.6950253 1.6849747-.4467418.4467419-1.0531891.6968917-1.6849747.6950253-.1509707.0020246-.3017534-.0113783-.45-.04-.8083201 2.5417133-2.6224952 4.6413861-5.02 5.81-1.5847884.7066858-3.3952116.7066858-4.98 0-2.3975048-1.1686139-4.2116799-3.2682867-5.02-5.81-.14487218.0286288-.29234021.042035-.44.04-1.31719913 0-2.385-1.0678009-2.385-2.385s1.06780087-2.385 2.385-2.385v-3.26c2.52 2.05 5.74 1.89 8.69 0s6.85-1.45 7.84.58c-.1076999.9133774-.3156188 1.8121235-.62 2.68.6328696.0002613 1.2395969.2524682 1.6861642.7009118.4465672.4484437.6962281 1.0562231.6938358 1.6890882z" fill="#fdd7ad"/><path id="Shape" d="m21 34c0 2.209139-1.790861 4-4 4s-4-1.790861-4-4h-.05c1.4200625-1.031797 2.0203039-2.8566918 1.49-4.53 1.5847884.7066858 3.3952116.7066858 4.98 0-.4866806 1.6922552.1464491 3.5074944 1.58 4.53z" fill="#f9c795"/><path id="Shape" d="m29 39.57.0000023 2.43h-24.00000455l.00000225-2.43c-.00132824-1.4776626.58508282-2.8951858 1.62994851-3.9400515 1.0448657-1.0448657 2.46238885-1.6312767 3.94005149-1.6299485h2.43c0 2.209139 1.790861 4 4 4s4-1.790861 4-4h2.43c1.4776626-.0013282 2.8951858.5850828 3.9400515 1.6299485s1.6312767 2.4623889 1.6299485 3.9400515z" fill="#ff5364"/><path id="Shape" d="m10 43c-.55228475 0-1-.4477153-1-1v-2c0-.5522847.44771525-1 1-1 .5522847 0 1 .4477153 1 1v2c0 .5522847-.4477153 1-1 1z" fill="#df4d60"/><path id="Shape" d="m24 43c-.5522847 0-1-.4477153-1-1v-2c0-.5522847.4477153-1 1-1s1 .4477153 1 1v2c0 .5522847-.4477153 1-1 1z" fill="#df4d60"/><path id="Shape" d="m53 42v3.82c.0452102 1.152631-.8477494 2.1259569-2 2.18h-48c-1.15225064-.0540431-2.04521019-1.027369-2-2.18v-3.82z" fill="#3b97d3"/><g fill="#ecf0f1"><path id="Shape" d="m55 13h-1v-2c.5522847 0 1-.4477153 1-1 0-.55228475-.4477153-1-1-1v-2h1c.5522847 0 1-.44771525 1-1s-.4477153-1-1-1h-1c-1.1045695 0-2 .8954305-2 2v6c0 1.1045695.8954305 2 2 2h1c.5522847 0 1-.4477153 1-1s-.4477153-1-1-1z"/><path id="Shape" d="m37 13h-1v-7c0-.55228475-.4477153-1-1-1s-1 .44771525-1 1v7c0 1.1045695.8954305 2 2 2h1c.5522847 0 1-.4477153 1-1s-.4477153-1-1-1z"/><path id="Shape" d="m49.242 5.03c-.5353845-.13355582-1.0777678.19178466-1.212.727l-1.03 4.12-1.03-4.12c-.1373346-.53205934-.6782442-.85362876-1.2112708-.72009737-.5330265.13353139-.8584506.67213082-.7287292 1.20609737l2 8c.1114998.4448894.5113511.7568951.97.7568951s.8585002-.3120057.97-.7568951l2-8c.0644087-.25739753.0238814-.52984064-.1126593-.75734587-.1365406-.22750522-.3578997-.39141954-.6153407-.45565413z"/><path id="Shape" d="m41 5c-.5522847 0-1 .44771525-1 1v8c0 .5522847.4477153 1 1 1s1-.4477153 1-1v-8c0-.55228475-.4477153-1-1-1z"/></g></g></g></svg>