<?xml version="1.0" encoding="iso-8859-1"?>
<!-- Generator: Adobe Illustrator 19.0.0, SVG Export Plug-In . SVG Version: 6.00 Build 0)  -->
<svg version="1.1" id="Layer_1" xmlns="http://www.w3.org/2000/svg" xmlns:xlink="http://www.w3.org/1999/xlink" x="0px" y="0px"
	 viewBox="0 0 512 512" style="enable-background:new 0 0 512 512;" xml:space="preserve">
<path style="fill:#C4CAD9;" d="M346,272V150c0-49.629-40.371-90-90-90s-90,40.371-90,90v122h-60V150C106,67.295,173.295,0,256,0
	s150,67.295,150,150v122H346z"/>
<path style="fill:#BBC2CD;" d="M346,150v122h60V150C406,67.295,338.705,0,256,0v60C305.629,60,346,100.371,346,150z"/>
<path style="fill:#FCB33B;" d="M406,512H106c-24.814,0-45-20.186-45-45V287c0-24.814,20.186-45,45-45h300c24.814,0,45,20.186,45,45
	v180C451,491.814,430.814,512,406,512z"/>
<path style="fill:#F69838;" d="M406,242H256v270h150c24.814,0,45-20.186,45-45V287C451,262.186,430.814,242,406,242z"/>
<path style="fill:#5C5F66;" d="M301,347c0-24.814-20.186-45-45-45s-45,20.186-45,45c0,19.541,12.576,36.035,30,42.246V437
	c0,8.291,6.709,15,15,15c8.291,0,15-6.709,15-15v-47.754C288.424,383.035,301,366.541,301,347z"/>
<path style="fill:#53565C;" d="M271,437v-47.754c17.424-6.211,30-22.705,30-42.246c0-24.814-20.186-45-45-45v150
	C264.291,452,271,445.291,271,437z"/>
<g>
</g>
<g>
</g>
<g>
</g>
<g>
</g>
<g>
</g>
<g>
</g>
<g>
</g>
<g>
</g>
<g>
</g>
<g>
</g>
<g>
</g>
<g>
</g>
<g>
</g>
<g>
</g>
<g>
</g>
</svg>
