<svg height="469pt" viewBox="0 0 469 469.33333" width="469pt" xmlns="http://www.w3.org/2000/svg">
	<path d="m234.832031 0c122.410157 0 222.804688 93.738281 233.601563 213.332031h-190.933594v-64c0-8.617187-5.207031-16.402343-13.164062-19.710937-7.976563-3.304688-17.152344-1.472656-23.25 4.628906l-85.335938 85.335938c-8.339844 8.339843-8.339844 21.820312 0 30.164062l85.335938 85.332031c6.097656 6.101563 15.273437 7.9375 23.25 4.628907 7.957031-3.304688 13.164062-11.09375 13.164062-19.710938v-64h190.933594c-10.796875 119.59375-111.191406 213.332031-233.601563 213.332031-129.597656 0-234.664062-105.066406-234.664062-234.664062 0-129.601563 105.066406-234.667969 234.664062-234.667969zm0 0"/>
</svg>