<?xml version="1.0" encoding="iso-8859-1"?>
<!-- Generator: Adobe Illustrator 19.0.0, SVG Export Plug-In . SVG Version: 6.00 Build 0)  -->
<svg version="1.1" id="Layer_1" xmlns="http://www.w3.org/2000/svg" xmlns:xlink="http://www.w3.org/1999/xlink" x="0px" y="0px"
	 viewBox="0 0 472.645 472.645" style="enable-background:new 0 0 472.645 472.645;" xml:space="preserve">
<g>
	<g>
		<path d="M108.322,118.183V256.03H472.63V118.183H108.322z M226.121,198.24l-9.846,17.058l-19.337-11.165v22.328h-19.692v-22.328
			l-19.337,11.165l-9.846-17.058l19.335-11.163l-19.335-11.164l9.846-17.058l19.337,11.166v-22.328h19.692v22.328l19.337-11.166
			l9.846,17.058l-19.335,11.164L226.121,198.24z M324.582,198.24l-9.846,17.058l-19.337-11.165v22.328h-19.692v-22.328
			l-19.337,11.165l-9.846-17.058l19.335-11.163l-19.335-11.164l9.846-17.058l19.337,11.166v-22.328h19.692v22.328l19.337-11.166
			l9.846,17.058l-19.335,11.164L324.582,198.24z M423.044,198.24l-9.846,17.058l-19.337-11.165v22.328h-19.692v-22.328
			l-19.337,11.165l-9.846-17.058l19.335-11.163l-19.335-11.164l9.846-17.058l19.337,11.166v-22.328h19.692v22.328l19.337-11.166
			l9.846,17.058l-19.335,11.164L423.044,198.24z"/>
	</g>
</g>
<g>
	<g>
		<path d="M88.63,275.721v-59.076H68.938v-98.491c0-54.289,44.168-98.461,98.461-98.461c47.56,0,87.343,33.898,96.481,78.798h19.898
			C274.371,42.684,225.836,0,167.399,0C102.25,0,49.246,53,49.246,118.154v98.491H0.015v256h334.769V275.721H88.63z
			 M201.158,413.542h-67.517l10.888-55.48c-6.657-6.166-10.888-14.908-10.888-24.696c0-18.645,15.114-33.759,33.759-33.759
			c18.645,0,33.759,15.114,33.759,33.759c0,9.788-4.231,18.53-10.888,24.696L201.158,413.542z"/>
	</g>
</g>
<g>
</g>
<g>
</g>
<g>
</g>
<g>
</g>
<g>
</g>
<g>
</g>
<g>
</g>
<g>
</g>
<g>
</g>
<g>
</g>
<g>
</g>
<g>
</g>
<g>
</g>
<g>
</g>
<g>
</g>
</svg>
