<svg height="496pt" viewBox="0 0 496 496" width="496pt" xmlns="http://www.w3.org/2000/svg"><path d="m32 384h16v16h-16zm0 0"/><path d="m496 128-30-40 30-40h-128v-48h-328c-22.054688 0-40 17.945312-40 40v352c0 22.054688 17.945312 40 40 40h112.640625c-.375 2.625-.640625 5.28125-.640625 8 0 30.871094 25.121094 56 56 56h288v-16c-22.054688 0-40-17.945312-40-40s17.945312-40 40-40v-16c-22.054688 0-40-17.945312-40-40s17.945312-40 40-40v-16h-128v-160zm-32-64-18 24 18 24h-96v-48zm-424-48h24v336h-24c-9.039062 0-17.296875 3.128906-24 8.207031v-320.207031c0-13.230469 10.769531-24 24-24zm0 400c-13.230469 0-24-10.769531-24-24s10.769531-24 24-24h117.480469c2.855469 5.992188 6.710937 11.40625 11.398437 16h-104.878906v16h104.886719c-4.695313 4.59375-8.542969 10.007812-11.398438 16zm405.480469 0h-237.480469c-13.230469 0-24 10.769531-24 24s10.769531 24 24 24h237.480469c2.855469 5.984375 6.679687 11.414062 11.367187 16h-248.847656c-22.054688 0-40-17.945312-40-40s17.945312-40 40-40h248.839844c-4.679688 4.585938-8.503906 10.015625-11.359375 16zm-4.839844 32h-232.640625c-4.40625 0-8-3.585938-8-8s3.59375-8 8-8h232.640625c-.375 2.625-.640625 5.28125-.640625 8s.265625 5.375.640625 8zm4.839844-128h-237.480469c-13.230469 0-24 10.769531-24 24s10.769531 24 24 24h237.480469c2.855469 5.984375 6.679687 11.414062 11.367187 16h-248.847656c-22.054688 0-40-17.945312-40-40s17.945312-40 40-40h248.839844c-4.679688 4.585938-8.503906 10.015625-11.359375 16zm-4.839844 32h-232.640625c-4.40625 0-8-3.585938-8-8s3.59375-8 8-8h232.640625c-.375 2.625-.640625 5.28125-.640625 8s.265625 5.375.640625 8zm-232.640625-64c-30.878906 0-56 25.128906-56 56 0 2.71875.265625 5.375.640625 8h-72.640625v-336h272v272zm0 0"/><path d="m96 32v144h240v-144zm224 128h-208v-112h208zm0 0"/><path d="m96 192h16v16h-16zm0 0"/><path d="m128 192h208v16h-208zm0 0"/><path d="m96 224h240v16h-240zm0 0"/><path d="m96 256h208v16h-208zm0 0"/><path d="m320 256h16v16h-16zm0 0"/></svg>