<svg xmlns="http://www.w3.org/2000/svg" width="27.206" height="27.076"><path data-name="Path 201" d="M20.244 1.489V.908a.908.908 0 10-1.815 0v.576h-4.314V.908a.907.907 0 10-1.815 0v.576H8.122V.991a.907.907 0 10-1.815 0v.536A7.077 7.077 0 000 8.552v11.456a7.077 7.077 0 007.068 7.069h13.07a7.077 7.077 0 007.068-7.069V8.551a7.073 7.073 0 00-6.962-7.062zM6.307 3.36v.5a.907.907 0 101.815 0v-.563H12.3v.48a.907.907 0 101.815 0v-.48h4.314v.48a.908.908 0 001.815 0v-.474a5.256 5.256 0 015.148 5.247v.828H1.815V8.55a5.256 5.256 0 014.494-5.19zm13.831 21.9H7.068a5.26 5.26 0 01-5.253-5.254v-8.813h23.577v8.813a5.259 5.259 0 01-5.254 5.255z" fill="#fff"/></svg>