<svg xmlns="http://www.w3.org/2000/svg" width="23.539" height="23.426"><path data-name="Path 189" d="M17.515 1.288v-.5a.785.785 0 00-1.57 0v.5h-3.736v-.5a.785.785 0 00-1.57 0v.5H7.024V.861a.785.785 0 00-1.57 0v.463A6.123 6.123 0 00-.003 7.402v9.912a6.123 6.123 0 006.115 6.116H17.42a6.123 6.123 0 006.115-6.116V7.402a6.12 6.12 0 00-6.02-6.114zM5.457 2.907v.433a.785.785 0 001.57 0v-.487h3.615v.415a.785.785 0 001.57 0v-.415h3.732v.415a.785.785 0 001.57 0v-.41a4.547 4.547 0 014.454 4.54v.716h-20.4v-.716a4.547 4.547 0 013.889-4.491zm11.967 18.948H6.116a4.55 4.55 0 01-4.545-4.546V9.684h20.4v7.625a4.55 4.55 0 01-4.547 4.547z" fill="#66925b"/></svg>