<svg xmlns="http://www.w3.org/2000/svg" width="25.696" height="18"><g data-name="Group 30"><path data-name="Path 5" d="M19.038 18h-13.7a5.271 5.271 0 01-5.326-4.767 5.124 5.124 0 013.3-5.2.635.635 0 00.436-.6 6.519 6.519 0 011.872-4.9A8.347 8.347 0 0111.559.002a7.7 7.7 0 017.11 4.733.631.631 0 00.576.4 6.465 6.465 0 014.695 2.024 6.384 6.384 0 011.737 4.807A6.561 6.561 0 0119.038 18zM11.567 1.324a7 7 0 00-4.98 2.12 5.25 5.25 0 00-1.509 3.927 1.953 1.953 0 01-1.287 1.9 3.807 3.807 0 00-2.455 3.861 3.943 3.943 0 004.006 3.54h13.7a5.236 5.236 0 005.325-4.793 5.111 5.111 0 00-5.1-5.428 1.955 1.955 0 01-1.806-1.21 6.375 6.375 0 00-5.896-3.917z" fill="#a2850f"/></g></svg>