<svg xmlns="http://www.w3.org/2000/svg" width="24.73" height="25.992"><g data-name="Group 7"><path data-name="Path 5" d="M7.558 25.992a7.557 7.557 0 01-5.344-12.9l12.211-11.34a6.049 6.049 0 018.537.02 6.057 6.057 0 010 8.557l-10.727 9.853a4.543 4.543 0 01-6.4-6.449l.042-.039 5.971-5.145a.777.777 0 011.014 1.176l-5.948 5.126a2.991 2.991 0 004.249 4.211l10.725-9.853a4.5 4.5 0 00-6.385-6.338L3.293 14.209a6.005 6.005 0 008.513 8.472L22.758 12.43a.776.776 0 011.062 1.133L12.884 23.792a7.491 7.491 0 01-5.326 2.2z" fill="#828282"/></g></svg>