<svg width="28" height="28" viewBox="0 0 28 28" fill="none" xmlns="http://www.w3.org/2000/svg">
<mask id="mask0_14570_1823" style="mask-type:alpha" maskUnits="userSpaceOnUse" x="0" y="0" width="28" height="28">
<path fill-rule="evenodd" clip-rule="evenodd" d="M0.666992 0.666748H27.271V27.2719H0.666992V0.666748Z" fill="white"/>
</mask>
<g mask="url(#mask0_14570_1823)">
<path fill-rule="evenodd" clip-rule="evenodd" d="M8.20166 2.66675C4.84033 2.66675 2.66699 4.97208 2.66699 8.53875V19.4001C2.66699 22.9681 4.84033 25.2721 8.20166 25.2721H19.7297C23.0963 25.2721 25.271 22.9681 25.271 19.4001V8.53875C25.2737 6.72141 24.719 5.20408 23.6683 4.15208C22.6977 3.18008 21.339 2.66675 19.7363 2.66675H8.20166ZM19.7297 27.2721H8.20166C3.69499 27.2721 0.666992 24.1081 0.666992 19.4001V8.53875C0.666992 3.83075 3.69499 0.666748 8.20166 0.666748H19.7363C21.8803 0.666748 23.7297 1.38275 25.083 2.73875C26.4977 4.15475 27.2737 6.21475 27.271 8.54008V19.4001C27.271 24.1081 24.2403 27.2721 19.7297 27.2721V27.2721Z" fill="#15202B"/>
</g>
<path fill-rule="evenodd" clip-rule="evenodd" d="M9.80863 8.25269C9.0033 8.25269 8.34863 8.90735 8.34863 9.71402C8.34863 10.5194 9.0033 11.174 9.80997 11.174C10.6153 11.174 11.2713 10.5194 11.2713 9.71535C11.27 8.90869 10.614 8.25402 9.80863 8.25269M9.80997 13.174C7.90063 13.174 6.34863 11.622 6.34863 9.71402C6.34863 7.80469 7.90063 6.25269 9.80997 6.25269C11.718 6.25402 13.27 7.80602 13.2713 9.71269V9.71402C13.2713 11.622 11.7193 13.174 9.80997 13.174" fill="#15202B"/>
<path fill-rule="evenodd" clip-rule="evenodd" d="M2.99858 24.815C2.83325 24.815 2.66525 24.7736 2.51058 24.687C2.02791 24.4163 1.85858 23.807 2.12791 23.3256C2.20791 23.1816 4.12125 19.799 6.22658 18.0656C7.89591 16.6923 9.69325 17.447 11.1412 18.0563C11.9932 18.415 12.7986 18.7536 13.5719 18.7536C14.2812 18.7536 15.1706 17.5003 15.9572 16.395C17.0492 14.8536 18.2892 13.1096 20.1052 13.1096C22.9986 13.1096 25.4959 15.691 26.8386 17.0776L26.9932 17.2376C27.3772 17.6336 27.3679 18.267 26.9719 18.6523C26.5786 19.0376 25.9452 19.0283 25.5586 18.631L25.4012 18.4683C24.2652 17.2936 22.1506 15.1096 20.1052 15.1096C19.3212 15.1096 18.4012 16.407 17.5866 17.5523C16.4692 19.1256 15.3132 20.7536 13.5719 20.7536C12.3946 20.7536 11.3159 20.3003 10.3652 19.899C8.85325 19.2616 8.16791 19.0576 7.49725 19.6096C5.67858 21.1083 3.88925 24.2736 3.87191 24.3043C3.68925 24.631 3.34925 24.815 2.99858 24.815" fill="#15202B"/>
</svg>
