<svg xmlns="http://www.w3.org/2000/svg" width="20.103" height="25.149"><g data-name="Group 31" fill="#66925b"><path data-name="Path 25" d="M10.051 12.77a6.385 6.385 0 10-6.385-6.385 6.392 6.392 0 006.385 6.385zm0-11.337a4.952 4.952 0 11-4.955 4.952 4.958 4.958 0 014.955-4.952z"/><path data-name="Path 26" d="M15.548 15.583H4.556A4.561 4.561 0 000 20.138v.455a4.561 4.561 0 004.556 4.555h10.992a4.561 4.561 0 004.555-4.554v-.455a4.561 4.561 0 00-4.555-4.556zm3.122 5.011a3.126 3.126 0 01-3.122 3.122H4.556a3.126 3.126 0 01-3.122-3.122v-.455a3.126 3.126 0 013.122-3.122h10.992a3.126 3.126 0 013.122 3.122z"/></g></svg>