<svg xmlns="http://www.w3.org/2000/svg" width="18.682" height="22"><g data-name="Group 35" fill="#fff"><path data-name="Path 19" d="M18.026 3.246h-4.9a4.181 4.181 0 00-8.151 0H.656a.613.613 0 100 1.224h17.371a.613.613 0 100-1.224zM9.049 1.223a2.791 2.791 0 012.742 2.023H6.307A2.792 2.792 0 019.05 1.22z"/><path data-name="Path 20" d="M16.558 6.662a.651.651 0 00-.723.553l-1.1 10.957a.484.484 0 000 .056 2.668 2.668 0 01-2.767 2.548H6.722a2.668 2.668 0 01-2.767-2.548.459.459 0 000-.056l-1.1-10.957a.653.653 0 00-.722-.553.627.627 0 00-.6.665l1.1 10.93a3.952 3.952 0 004.1 3.742h5.246a3.951 3.951 0 004.1-3.742l1.1-10.93a.628.628 0 00-.621-.665z"/><path data-name="Path 21" d="M7.774 14.56V8.83a.612.612 0 00-1.224 0v5.73a.612.612 0 001.224 0z"/><path data-name="Path 22" d="M12.29 17.347v-5.73a.612.612 0 10-1.224 0v5.73a.612.612 0 101.224 0z"/></g></svg>